<svg width="58" height="57" viewBox="0 0 58 57" fill="none" xmlns="http://www.w3.org/2000/svg">
<path d="M28.6744 2.36692C28.4767 2.37544 28.2887 2.45237 28.1438 2.58395C27.9989 2.71552 27.9067 2.89314 27.8837 3.08503L25.5053 23.3794L8.7037 35.53C8.54199 35.6497 8.43058 35.8229 8.3904 36.0172C8.35021 36.2115 8.38403 36.4134 8.48548 36.585C8.58694 36.7566 8.74906 36.8862 8.9414 36.9494C9.13375 37.0125 9.34309 37.005 9.53012 36.9281L25.7168 30.0648L23.7159 53.5429C23.7064 53.655 23.7209 53.7677 23.7583 53.874C23.7957 53.9803 23.8553 54.0779 23.9332 54.1606C24.0112 54.2433 24.1058 54.3093 24.2112 54.3545C24.3166 54.3997 24.4304 54.423 24.5455 54.4231H32.8748C32.9899 54.423 33.1037 54.3997 33.2091 54.3545C33.3145 54.3093 33.4091 54.2433 33.4871 54.1606C33.5651 54.0779 33.6246 53.9803 33.662 53.874C33.6994 53.7677 33.7139 53.655 33.7044 53.5429L31.7035 30.0648L47.8902 36.9281C48.0772 37.005 48.2866 37.0125 48.4789 36.9494C48.6713 36.8862 48.8334 36.7566 48.9348 36.585C49.0363 36.4134 49.0701 36.2115 49.0299 36.0172C48.9897 35.8229 48.8783 35.6497 48.7166 35.53L31.915 23.3794L29.5366 3.08503C29.5121 2.88119 29.4097 2.69392 29.2498 2.56074C29.0899 2.42757 28.8843 2.35834 28.6744 2.36692ZM28.7102 10.3169L30.1027 22.1942C29.6768 21.9998 29.2085 21.886 28.7102 21.886C28.2118 21.886 27.7435 21.9998 27.3176 22.1942L28.7102 10.3169ZM28.7102 23.5129C28.9195 23.5129 29.1156 23.5542 29.2991 23.6209C29.3793 23.6502 29.4496 23.6978 29.5236 23.7385C29.6166 23.7905 29.7067 23.8427 29.7871 23.91C29.8569 23.9686 29.9167 24.0369 29.9758 24.107C29.9758 24.107 29.9798 24.1067 29.9823 24.1229C30.0592 24.214 30.12 24.3142 30.1743 24.4184C30.2076 24.4835 30.2439 24.5453 30.2686 24.6154C30.3266 24.782 30.376 24.9555 30.376 25.1429C30.376 25.37 30.3294 25.5833 30.2459 25.7784C29.9947 26.3621 29.4066 26.7666 28.7102 26.7666C28.478 26.7666 28.2558 26.7208 28.0562 26.6395C27.6575 26.4766 27.3418 26.1674 27.1745 25.7784C27.0913 25.5843 27.0448 25.372 27.0443 25.1461C27.0443 24.9598 27.0944 24.7876 27.1517 24.6218C27.175 24.5551 27.2084 24.4966 27.2395 24.4343C27.2977 24.3204 27.3632 24.2115 27.4478 24.1134C27.5056 24.0451 27.5653 23.98 27.6332 23.9228C27.714 23.8544 27.8032 23.7991 27.8968 23.748C27.9707 23.7073 28.041 23.6629 28.1213 23.6336C28.3047 23.5669 28.5008 23.5224 28.7102 23.5224V23.5129ZM25.411 25.4638C25.5128 26.4378 26.0468 27.2923 26.8361 27.8215L15.533 32.6131L25.411 25.4638ZM32.0093 25.4638L41.8775 32.6035L30.5875 27.8183C31.3747 27.2889 31.9077 26.4362 32.0093 25.4638ZM28.7102 28.797L29.9693 29.3308L31.9703 52.7962H25.45L27.4543 29.3308L28.7102 28.797Z" fill="white"/>
</svg>