<svg width="57" height="57" viewBox="0 0 57 57" fill="none" xmlns="http://www.w3.org/2000/svg">
<path d="M25.7324 1.77124C25.5423 1.77108 25.3572 1.83195 25.2044 1.9449C25.0515 2.05784 24.9389 2.21688 24.8832 2.39861L21.3339 13.9339C21.3083 14.0182 21.2955 14.1058 21.2957 14.1939V14.2598C21.2005 14.2975 21.1126 14.3515 21.0358 14.4192L9.1677 25.0672C9.0566 25.1666 8.97233 25.2924 8.92265 25.4329C8.87298 25.5734 8.8595 25.7242 8.88348 25.8714C8.87563 25.9218 8.87215 25.9728 8.87308 26.0239V27.49C8.87142 27.6076 8.89314 27.7244 8.93699 27.8335C8.98083 27.9426 9.04593 28.0419 9.12849 28.1256C9.21105 28.2094 9.30943 28.2759 9.41792 28.3213C9.5264 28.3666 9.64282 28.39 9.76041 28.39C9.87801 28.39 9.99443 28.3666 10.1029 28.3213C10.2114 28.2759 10.3098 28.2094 10.3923 28.1256C10.4749 28.0419 10.54 27.9426 10.5838 27.8335C10.6277 27.7244 10.6494 27.6076 10.6477 27.49V26.6166H12.4224V27.49C12.4208 27.6076 12.4425 27.7244 12.4863 27.8335C12.5302 27.9426 12.5953 28.0419 12.6778 28.1256C12.7604 28.2094 12.8588 28.2759 12.9672 28.3213C13.0757 28.3666 13.1922 28.39 13.3097 28.39C13.4273 28.39 13.5438 28.3666 13.6522 28.3213C13.7607 28.2759 13.8591 28.2094 13.9417 28.1256C14.0242 28.0419 14.0893 27.9426 14.1332 27.8335C14.177 27.7244 14.1987 27.6076 14.1971 27.49V26.6166H19.0774H19.3096L9.1677 35.7152C9.0566 35.8146 8.97233 35.9404 8.92265 36.0809C8.87298 36.2214 8.8595 36.3722 8.88348 36.5194C8.87563 36.5698 8.87215 36.6208 8.87308 36.6719V38.138C8.87142 38.2556 8.89314 38.3724 8.93699 38.4815C8.98083 38.5906 9.04593 38.6899 9.12849 38.7736C9.21105 38.8574 9.30943 38.9239 9.41792 38.9693C9.5264 39.0146 9.64282 39.038 9.76041 39.038C9.87801 39.038 9.99443 39.0146 10.1029 38.9693C10.2114 38.9239 10.3098 38.8574 10.3923 38.7736C10.4749 38.6899 10.54 38.5906 10.5838 38.4815C10.6277 38.3724 10.6494 38.2556 10.6477 38.138V37.2646H12.4224V38.138C12.4208 38.2556 12.4425 38.3724 12.4863 38.4815C12.5302 38.5906 12.5953 38.6899 12.6778 38.7736C12.7604 38.8574 12.8588 38.9239 12.9672 38.9693C13.0757 39.0146 13.1922 39.038 13.3097 39.038C13.4273 39.038 13.5438 39.0146 13.6522 38.9693C13.7607 38.9239 13.8591 38.8574 13.9417 38.7736C14.0242 38.6899 14.0893 38.5906 14.1332 38.4815C14.177 38.3724 14.1987 38.2556 14.1971 38.138V37.2646H20.7481L12.7621 53.2366H1.77441V55.0112H16.5783L16.5887 55.0216L16.5991 55.0112H40.1793L40.1897 55.0216L40.2001 55.0112H55.0144V53.2366H44.0267L36.0407 37.2646H42.5917V38.138C42.5901 38.2556 42.6118 38.3724 42.6557 38.4815C42.6995 38.5906 42.7646 38.6899 42.8472 38.7736C42.9297 38.8574 43.0281 38.9239 43.1366 38.9693C43.2451 39.0146 43.3615 39.038 43.4791 39.038C43.5967 39.038 43.7131 39.0146 43.8216 38.9693C43.9301 38.9239 44.0284 38.8574 44.111 38.7736C44.1936 38.6899 44.2587 38.5906 44.3025 38.4815C44.3464 38.3724 44.3681 38.2556 44.3664 38.138V37.2646H46.1411V38.138C46.1394 38.2556 46.1611 38.3724 46.205 38.4815C46.2488 38.5906 46.3139 38.6899 46.3965 38.7736C46.4791 38.8574 46.5774 38.9239 46.6859 38.9693C46.7944 39.0146 46.9108 39.038 47.0284 39.038C47.146 39.038 47.2624 39.0146 47.3709 38.9693C47.4794 38.9239 47.5778 38.8574 47.6603 38.7736C47.7429 38.6899 47.808 38.5906 47.8518 38.4815C47.8957 38.3724 47.9174 38.2556 47.9157 38.138V36.6719C47.9161 36.6172 47.9115 36.5627 47.9019 36.509C47.9239 36.3643 47.9097 36.2164 47.8608 36.0786C47.8118 35.9407 47.7295 35.817 47.6211 35.7187L37.5242 26.6166H37.7114H42.5917V27.49C42.5901 27.6076 42.6118 27.7244 42.6557 27.8335C42.6995 27.9426 42.7646 28.0419 42.8472 28.1256C42.9297 28.2094 43.0281 28.2759 43.1366 28.3213C43.2451 28.3666 43.3615 28.39 43.4791 28.39C43.5967 28.39 43.7131 28.3666 43.8216 28.3213C43.9301 28.2759 44.0284 28.2094 44.111 28.1256C44.1936 28.0419 44.2587 27.9426 44.3025 27.8335C44.3464 27.7244 44.3681 27.6076 44.3664 27.49V26.6166H46.1411V27.49C46.1394 27.6076 46.1611 27.7244 46.205 27.8335C46.2488 27.9426 46.3139 28.0419 46.3965 28.1256C46.4791 28.2094 46.5774 28.2759 46.6859 28.3213C46.7944 28.3666 46.9108 28.39 47.0284 28.39C47.146 28.39 47.2624 28.3666 47.3709 28.3213C47.4794 28.2759 47.5778 28.2094 47.6603 28.1256C47.7429 28.0419 47.808 27.9426 47.8518 27.8335C47.8957 27.7244 47.9174 27.6076 47.9157 27.49V26.0239C47.9161 25.9692 47.9115 25.9147 47.9019 25.861C47.9239 25.7163 47.9097 25.5684 47.8608 25.4306C47.8118 25.2927 47.7295 25.169 47.6211 25.0707L35.8085 14.4227C35.7172 14.3402 35.6098 14.2777 35.4931 14.239V14.1939C35.4933 14.1058 35.4805 14.0182 35.455 13.9339L31.9056 2.39861C31.8499 2.21688 31.7373 2.05784 31.5845 1.9449C31.4316 1.83195 31.2465 1.77108 31.0564 1.77124H25.7324ZM26.3875 3.54591H30.4013L33.6768 14.1939H23.112L26.3875 3.54591ZM24.5505 15.9686H32.2522L28.4013 19.2406L24.5505 15.9686ZM35.4931 16.5232L44.72 24.8419H37.7114H35.4931V16.5232ZM21.2957 16.5752V24.8419H19.0774H12.0793L21.2957 16.5752ZM23.0704 17.0431L27.0288 20.4052L23.0704 23.7674V17.0431ZM33.7184 17.0535V23.757L29.7739 20.4052L33.7184 17.0535ZM28.4013 21.5699L32.2522 24.8419H28.3944H24.5505L28.4013 21.5699ZM24.5505 26.6166H28.3944H32.2522L28.4013 29.8886L24.5505 26.6166ZM35.4931 27.1712L44.72 35.4899H35.4931V27.1712ZM21.2957 27.2197V35.4899H12.0793L21.2957 27.2197ZM23.0704 27.6911L27.0288 31.0532L23.0704 34.4154V27.6911ZM33.7184 27.7015V34.405L29.7739 31.0532L33.7184 27.7015ZM28.4013 32.2179L32.2522 35.4899H24.5505L28.4013 32.2179ZM24.3564 37.2646H32.4221L28.3909 41.1605L24.3564 37.2646ZM34.3562 37.8642L42.0441 53.2366H40.8968L29.6665 42.391L34.3562 37.8642ZM22.4292 37.8712L27.1119 42.391L15.8816 53.2366H14.7447L22.4292 37.8712ZM28.3875 43.625L38.3423 53.2366H18.4362L28.3875 43.625Z" fill="white"/>
</svg>