<svg width="63" height="46" viewBox="0 0 63 46" fill="none" xmlns="http://www.w3.org/2000/svg">
<path d="M61.547 26H52.453C52.2265 26 52 25.7468 52 25.5C52 25.2532 52.2265 25 52.453 25H61.547C61.7735 25 62 25.2532 62 25.5C62 25.7468 61.7735 26 61.547 26Z" fill="white"/>
<path d="M21.5534 35H9.44654C9.22326 35 9 34.7468 9 34.5C9 34.2532 9.22326 34 9.44654 34H21.5534C21.7767 34 22 34.2532 22 34.5C22 34.7468 21.7767 35 21.5534 35Z" fill="white"/>
<path d="M59.5384 21H3.46158C3.23079 21 3 20.7725 3 20.5507V4.0669C3 1.80878 4.8521 0 7.17157 0H55.8284C58.1479 0 60 1.80878 60 4.0669V20.5507C60 20.7782 59.7692 21 59.5384 21ZM3.92893 19.9819H58.9614V4.06121C58.9614 2.3662 57.5709 1.01246 55.8342 1.01246H7.05616C5.31945 1.01246 3.92893 2.3662 3.92893 4.06121V19.9819Z" fill="white"/>
<path d="M47.5304 30H15.4696C15.2348 30 15 29.776 15 29.5576V21.4424C15 21.2184 15.2348 21 15.4696 21H47.5304C47.7652 21 48 21.224 48 21.4424V29.5576C48 29.7816 47.7652 30 47.5304 30ZM16.0624 28.9975H47.0608V21.8849H16.0624V28.9975Z" fill="white"/>
<path d="M57.4274 38H5.45807C5.22903 38 5 37.776 5 37.5576V29.4424C5 29.2184 5.22903 29 5.45807 29H57.5419C57.771 29 58 29.224 58 29.4424V37.5576C58 37.7816 57.771 38 57.4274 38ZM5.92188 37.0031H56.9693V29.8905H5.92188V37.0031Z" fill="white"/>
<path d="M41.5126 38H21.4644C21.2322 38 21 37.776 21 37.5576V29.4424C21 29.2184 21.2322 29 21.4644 29H41.5126C41.7448 29 41.9769 29.224 41.9769 29.4424V37.5576C42.093 37.7816 41.7448 38 41.5126 38ZM21.9345 37.0031H40.9322V29.8905H21.9345V37.0031Z" fill="white"/>
<path d="M16.4491 46C16.2309 46 16.0127 45.776 16.0127 45.5576V37.9969H2.87271V45.5576C2.87271 45.7816 2.65454 46 2.43636 46C2.21818 46 2 45.776 2 45.5576V37.4424C2 37.2184 2.21818 37 2.43636 37H16.5636C16.7818 37 17 37.224 17 37.4424V45.5576C17 45.7816 16.7818 46 16.4545 46H16.4491Z" fill="white"/>
<path d="M31.5253 46C31.2908 46 31.0564 45.776 31.0564 45.5576V37.9969H16.9378V45.5576C16.9378 45.7816 16.7033 46 16.4689 46C16.2344 46 16 45.776 16 45.5576V37.4424C16 37.2184 16.2344 37 16.4689 37H31.5311C31.7656 37 32 37.224 32 37.4424V45.5576C32 45.7816 31.7656 46 31.5311 46H31.5253Z" fill="white"/>
<path d="M46.4182 46C46.1855 46 45.9527 45.776 45.9527 45.5576V37.9969H31.9309V45.5576C31.9309 45.7816 31.6982 46 31.4654 46C31.2327 46 31 45.776 31 45.5576V37.4424C31 37.2184 31.2327 37 31.4654 37H46.5346C46.7673 37 47 37.224 47 37.4424V45.5576C46.8836 45.7816 46.6509 46 46.4182 46Z" fill="white"/>
<path d="M61.4124 46C61.1796 46 60.9469 45.7732 60.9469 45.552V37.896H46.9309V45.552C46.9309 45.7788 46.6982 46 46.4654 46C46.2327 46 46 45.7732 46 45.552V37.448C46 37.2212 46.2327 37 46.4654 37H61.5346C61.7673 37 62 37.2268 62 37.448V45.552C61.8836 45.7788 61.6509 46 61.4182 46H61.4124Z" fill="white"/>
<path d="M47.9972 16C45.2694 16 43 13.7262 43 11C43 8.27377 45.2694 6 47.9972 6C50.7249 6 53 8.27377 53 11C52.8868 13.7262 50.7249 16 47.9972 16ZM47.9972 7.01947C45.841 7.01947 44.0187 8.84078 44.0187 11C44.0187 13.1592 45.8353 14.9805 47.9972 14.9805C50.159 14.9805 51.9757 13.1592 51.9757 11C51.8625 8.84078 50.159 7.01947 47.9972 7.01947Z" fill="white"/>
<path d="M15 16C12.2738 16 10 13.7262 10 11C10 8.27377 12.2738 6 15 6C17.7262 6 20 8.27377 20 11C20 13.7262 17.845 16 15 16ZM15 7.01947C12.845 7.01947 11.0238 8.84078 11.0238 11C11.0238 13.1592 12.8394 14.9805 15 14.9805C17.1606 14.9805 18.9762 13.1592 18.9762 11C18.9762 8.84078 17.2737 7.01947 15 7.01947Z" fill="white"/>
<path d="M48.6478 11H14.4696C14.2348 11 14 10.7468 14 10.5C14 10.2532 14.2348 10 14.4696 10H48.5304C48.7652 10 49 10.2532 49 10.5C49 10.7468 48.8826 11 48.6478 11Z" fill="white"/>
</svg>