<svg width="46" height="41" viewBox="0 0 46 41" fill="none" xmlns="http://www.w3.org/2000/svg">
<path d="M40.1974 40.5999H5.60035C5.43195 40.5999 5.2666 40.4345 5.2666 40.2692V20.6084C5.2666 20.5257 5.34927 20.443 5.34927 20.3603L22.6463 4.41673C22.8147 4.25139 22.98 4.25139 23.1484 4.41673L40.4485 20.2777C40.5312 20.3603 40.5311 20.443 40.5311 20.5257V40.1865C40.6138 40.4345 40.4485 40.5999 40.1974 40.5999ZM5.93411 39.8589H39.7779V20.7768L22.8973 5.08118L5.93411 20.7768V39.8589Z" fill="white"/>
<path d="M45.4609 25.7311C45.3782 25.7311 45.2925 25.7311 45.2098 25.6485L22.8973 5.07825L0.667506 25.6485C0.584834 25.7311 0.416426 25.8138 0.25108 25.7311C0.0826728 25.6485 0 25.5658 0 25.4005V21.1045C0 21.0219 0.0826728 20.9392 0.0826728 20.8565L22.5636 0.124009C22.732 -0.0413364 22.8973 -0.0413364 23.0657 0.124009L45.6293 20.8596C45.7119 20.9422 45.7119 21.0249 45.7119 21.1076V25.4035C45.7119 25.5689 45.6293 25.6515 45.4609 25.7342V25.7311ZM22.8973 4.25153C22.98 4.25153 23.0657 4.25153 23.1484 4.3342L45.0444 24.4911V21.2699L22.8973 0.865003L0.753241 21.2699V24.4911L22.6462 4.3342C22.7289 4.25153 22.8146 4.25153 22.8973 4.25153Z" fill="white"/>
<path d="M38.691 15.3236C38.6084 15.3236 38.5226 15.3236 38.44 15.2409L34.5972 11.6064C34.5145 11.5237 34.5145 11.4411 34.5145 11.3584V8.4679C34.5145 8.30255 34.6829 8.13721 34.8483 8.13721H38.691C38.8594 8.13721 39.0248 8.30255 39.0248 8.4679V14.9103C39.0248 15.0756 38.9421 15.1583 38.7737 15.2409C38.8564 15.3236 38.7737 15.3236 38.691 15.3236ZM35.2647 11.193L38.3573 14.0835V8.79553H35.2647V11.19V11.193Z" fill="white"/>
</svg>
