<svg width="48" height="48" viewBox="0 0 48 48" fill="none" xmlns="http://www.w3.org/2000/svg">
<path d="M47.0028 31.5147H13.388V15.5355C13.388 15.0038 12.9568 14.5723 12.425 14.5723H0.963278C0.431533 14.5723 0 15.0038 0 15.5355V43.8914C0 44.4231 0.431533 44.8546 0.963278 44.8546H47.0028C47.5345 44.8546 47.9661 44.4231 47.9661 43.8914V32.4779C47.9661 31.9462 47.5345 31.5147 47.0028 31.5147ZM1.92623 16.4988H11.4617V32.083L1.92623 41.5702V16.4988ZM46.0398 42.9281H3.29395L12.7815 33.4409H14.1009V35.8297C14.1009 36.3614 14.5324 36.7929 15.0641 36.7929C15.5959 36.7929 16.0271 36.3614 16.0271 35.8297V33.4409H17.9537V35.8297C17.9537 36.3614 18.3852 36.7929 18.9166 36.7929C19.4484 36.7929 19.8799 36.3614 19.8799 35.8297V33.4409H21.8064V37.8714C21.8064 38.4032 22.2376 38.8347 22.7694 38.8347C23.3011 38.8347 23.7327 38.4032 23.7327 37.8714V33.4409H25.6589V35.8297C25.6589 36.3614 26.0904 36.7929 26.6222 36.7929C27.1539 36.7929 27.5855 36.3614 27.5855 35.8297V33.4409H29.5117V35.8297C29.5117 36.3614 29.9432 36.7929 30.475 36.7929C31.0064 36.7929 31.4379 36.3614 31.4379 35.8297V33.4409H33.3645V37.8714C33.3645 38.4032 33.796 38.8347 34.3274 38.8347C34.8592 38.8347 35.2907 38.4032 35.2907 37.8714V33.4409H37.2169V35.8297C37.2169 36.3614 37.6485 36.7929 38.1802 36.7929C38.7119 36.7929 39.1435 36.3614 39.1435 35.8297V33.4409H41.0697V35.8297C41.0697 36.3614 41.5012 36.7929 42.033 36.7929C42.5647 36.7929 42.9959 36.3614 42.9959 35.8297V33.4409H46.1747L46.0398 42.9281Z" fill="#131D3B"/>
<path d="M24.3394 30.6577C24.5444 30.6557 24.7439 30.5882 24.9077 30.4651L34.1925 23.6552C34.1925 23.6552 34.2503 23.5782 34.2888 23.5397C34.3274 23.5012 34.3659 23.4917 34.3949 23.4434L44.2095 10.1034C45.0909 9.11237 45.32 7.70124 44.7971 6.48205C44.4782 5.83964 44.0016 5.28962 43.4101 4.88289L42.2833 4.07401C41.6167 3.54717 40.801 3.24359 39.9523 3.20703C38.7716 3.24653 37.6879 3.87065 37.0628 4.87343L27.2867 18.2519C27.255 18.3068 27.2299 18.3655 27.2097 18.4253C27.2097 18.4253 27.2097 18.483 27.1519 18.5121L23.4339 29.3863C23.2635 29.8899 23.5341 30.437 24.0378 30.6064C24.138 30.6404 24.2431 30.6577 24.3492 30.6577C24.3489 30.6577 24.3394 30.6577 24.3394 30.6577ZM38.6427 6.01004C38.9188 5.51975 39.4121 5.19039 39.9716 5.1238C40.4119 5.16427 40.8287 5.33858 41.1659 5.62453L42.264 6.43374C42.5895 6.64754 42.8584 6.93839 43.0442 7.28146C43.1212 7.45479 43.3716 7.98458 42.659 8.95732L42.0231 9.82398L40.0199 8.3505L38.0068 6.88649L38.6427 6.01004ZM36.8607 8.437L38.0936 9.3425L32.3143 17.1829C31.9735 17.5912 32.0293 18.199 32.4377 18.5389C32.846 18.879 33.4538 18.8238 33.7936 18.4155C33.8198 18.3848 33.8429 18.3531 33.8651 18.3192L39.6441 10.4791L40.8676 11.3843L33.4222 21.5364L29.4153 18.5891L36.8607 8.437ZM28.5483 20.3515L31.9967 22.8849L29.8583 24.4546L27.6911 22.8656L28.5483 20.3515ZM27.0363 24.7726L28.2304 25.649L26.2464 27.1036L27.0363 24.7726Z" fill="#131D3B"/>
</svg>