<svg width="48" height="48" viewBox="0 0 48 48" fill="none" xmlns="http://www.w3.org/2000/svg">
<path d="M44.747 22.7559L42.8382 21.935V20.6299C42.865 12.6193 37.8106 5.47203 30.2488 2.82852V0.989095C30.2488 0.443098 29.8057 0 29.26 0H18.678C18.1323 0 17.6892 0.443098 17.6892 0.989095V2.83824C10.1274 5.48175 5.07295 12.629 5.09977 20.6396V21.9548L3.21073 22.7559C2.84472 22.9104 2.60742 23.2694 2.60742 23.6659V28.858C2.60742 29.4037 3.05052 29.8468 3.59652 29.8468H4.88224V31.825C4.88224 32.3706 5.325 32.8137 5.871 32.8137H9.42148C9.75867 34.0519 10.2541 35.2427 10.8949 36.3542L8.38312 38.8663C7.99935 39.2517 7.99935 39.8748 8.38312 40.2606L12.5862 44.4637C12.9716 44.8475 13.5947 44.8475 13.9805 44.4637L16.4923 41.9519C17.601 42.5927 18.7879 43.0871 20.023 43.4253V46.9758C20.023 47.5215 20.4661 47.9646 21.0121 47.9646H26.9457C27.4917 47.9646 27.9348 47.5215 27.9348 46.9758V43.4253C29.1729 43.0881 30.3634 42.5938 31.4752 41.9519L33.9873 44.4637C34.3728 44.8475 34.9958 44.8475 35.3816 44.4637L39.5847 40.2606C39.9685 39.8748 39.9685 39.2517 39.5847 38.8663L37.0726 36.3542C37.7134 35.2427 38.2091 34.0519 38.5463 32.8137H42.0965C42.6425 32.8137 43.0856 32.3706 43.0856 31.825V29.8468H44.3713C44.9173 29.8468 45.3601 29.4037 45.3601 28.858V23.6659C45.358 23.2664 45.116 22.9074 44.747 22.7559ZM19.6473 1.98791H28.2709V18.5133H19.667L19.6473 1.98791ZM41.1174 30.8359H37.8244C37.3498 30.8248 36.9351 31.1533 36.8353 31.6168C36.5021 33.1657 35.8891 34.6401 35.0257 35.9684C34.7713 36.3592 34.8259 36.8744 35.154 37.2045L37.5177 39.5681L34.6892 42.3769L32.3255 40.0133C31.9954 39.6851 31.4802 39.6305 31.0894 39.8849C29.7611 40.748 28.2867 41.3613 26.7379 41.6945C26.274 41.7944 25.9458 42.209 25.9566 42.6836V46.0162H22.0009V42.6537C22.0119 42.1791 21.6834 41.7649 21.2196 41.665C19.6711 41.3325 18.1963 40.7195 16.8684 39.8551C16.4775 39.601 15.9624 39.6553 15.6319 39.9838L13.2683 42.3474L10.4696 39.5484L12.8332 37.1847C13.1617 36.8546 13.216 36.3394 12.9619 35.9486C12.0905 34.6284 11.4674 33.1607 11.1225 31.6168C11.0223 31.1533 10.608 30.8248 10.1334 30.8359H6.84032V29.8468H15.8793C16.4212 34.315 20.4829 37.4975 24.951 36.9545C28.6735 36.5027 31.6076 33.5692 32.0587 29.8468H41.1077L41.1174 30.8359ZM17.8967 29.8468H30.0708C29.5268 33.2113 26.3581 35.4978 22.994 34.9538C20.3692 34.5295 18.3113 32.4715 17.8869 29.8468H17.8967ZM43.3923 27.8689H4.57556V24.3185L6.48403 23.4976C6.85004 23.3434 7.08734 22.9845 7.08734 22.5876V20.6098C7.06556 13.7029 11.2706 7.48642 17.6892 4.93475V19.5024C17.6892 20.048 18.132 20.4911 18.678 20.4911H29.2795C29.8255 20.4911 30.2686 20.048 30.2686 19.5024V4.93475C36.6978 7.48541 40.908 13.7139 40.8801 20.6295V22.6077C40.8801 23.0042 41.1174 23.3632 41.4834 23.5174L43.3919 24.3382V27.8689H43.3923Z" fill="#131D3B"/>
</svg>