<svg width="48" height="48" viewBox="0 0 48 48" fill="none" xmlns="http://www.w3.org/2000/svg">
<g clip-path="url(#clip0_2110_70)">
<path d="M21.996 14.7063C21.1902 11.1261 17.6342 8.87782 14.054 9.68369C10.4741 10.4896 8.22584 14.0455 9.03172 17.6254C9.83759 21.2057 13.3935 23.4539 16.9734 22.648C16.9791 22.6471 16.9845 22.6452 16.9892 22.6442C20.548 21.8598 22.7972 18.3392 22.0128 14.7804C22.0071 14.7555 22.0014 14.7303 21.996 14.7063ZM15.4816 20.9505C12.8453 20.9647 10.6965 18.8382 10.6826 16.2017C10.6703 13.9515 12.2319 11.9982 14.43 11.5143C14.7782 11.4352 15.1337 11.3942 15.491 11.3932C18.1266 11.4623 20.2074 13.6547 20.1383 16.2912C20.0825 18.4278 18.6142 20.2657 16.5426 20.7925C16.2067 20.8697 15.8632 20.9098 15.5188 20.9133L15.4816 20.9505Z" fill="#131D3B"/>
<path d="M46.0337 6.05141C45.7227 6.03848 45.4259 6.18167 45.2426 6.43305L42.1995 10.5555C41.482 11.4891 40.156 11.69 39.1937 11.0116C38.2361 10.3044 38.032 8.95508 38.7376 7.99655L41.6037 4.10659C41.9223 3.70254 41.8532 3.11809 41.4495 2.79984C41.3189 2.69764 41.1637 2.63141 40.9988 2.60807C36.5376 1.93246 32.3729 5.00172 31.6973 9.46415C31.5522 10.4236 31.5794 11.4017 31.7765 12.3517L30.6785 13.45L29.9897 10.4161C29.8746 9.91551 29.3746 9.60262 28.8741 9.71806H28.8731L26.2208 10.323C25.761 9.47708 25.2017 8.68982 24.5548 7.97794L26.0067 5.67922C26.2811 5.24459 26.1527 4.67054 25.7181 4.39487L21.7165 1.87285C21.2818 1.59844 20.7078 1.72681 20.4324 2.16145L18.9806 4.46931C18.0725 4.19585 17.1354 4.03026 16.1889 3.97632L15.5931 1.32403C15.4779 0.823158 14.978 0.510586 14.4775 0.626027H14.4765L9.82326 1.67761C9.31987 1.77885 8.9931 2.27026 9.09561 2.77366C9.09656 2.77744 9.0975 2.78123 9.0975 2.78501L9.72107 5.39977C8.87514 5.85964 8.08756 6.41886 7.37599 7.06577L5.07728 5.61393C4.64264 5.33953 4.06828 5.4679 3.79293 5.90253L1.2709 9.90415C0.996493 10.3388 1.12487 10.9128 1.5595 11.1882L3.85822 12.64C3.58444 13.5484 3.41885 14.4855 3.36491 15.432L0.722086 16.102C0.221529 16.2174 -0.0913585 16.717 0.0240818 17.2179V17.2188L1.0662 21.8718C1.18164 22.3723 1.68157 22.6852 2.18212 22.5698H2.18307L4.83536 21.9743C5.29523 22.8193 5.85445 23.6065 6.50104 24.3194L5.04952 26.6181C4.80571 27.0534 4.94985 27.6034 5.37503 27.8649L9.37664 30.3869C9.52488 30.479 9.69584 30.5276 9.86994 30.5267H10.0283C10.2674 30.4718 10.474 30.3245 10.6052 30.1173L12.057 27.8185C12.9651 28.092 13.9022 28.2576 14.8487 28.3115L15.0256 29.0934L12.8667 31.2524C12.3213 31.1408 11.7668 31.0849 11.2101 31.0849C6.69187 31.0916 3.03562 34.7592 3.04193 39.2771C3.04382 40.74 3.4384 42.176 4.18403 43.4342C4.44898 43.8745 5.0205 44.0168 5.46082 43.7515C5.5649 43.6891 5.65606 43.6064 5.7286 43.5087L8.92087 39.1815C9.63906 38.2425 10.972 38.0413 11.9359 38.7254C12.8843 39.413 13.1076 40.7327 12.4387 41.6941L9.39557 45.826C9.10223 46.2483 9.20727 46.828 9.62992 47.1214C9.74914 47.2043 9.88603 47.2573 10.0283 47.2778C10.4528 47.3447 10.8824 47.3791 11.3126 47.38C13.4808 47.3866 15.5625 46.5259 17.0916 44.9886C19.0348 43.0371 19.8704 40.2413 19.3159 37.5436L38.133 18.736C38.6783 18.8476 39.2328 18.9035 39.7892 18.9035C44.3074 18.8997 47.9665 15.2349 47.9627 10.7166C47.9618 9.22949 47.5552 7.77134 46.7875 6.49834C46.6263 6.23277 46.3434 6.06434 46.0337 6.05141ZM11.9917 25.8084C11.5785 25.6586 11.1171 25.8176 10.8843 26.1898L9.54412 28.321L7.11546 26.8042L8.45533 24.6729C8.68905 24.3008 8.63133 23.816 8.31592 23.5097C7.42519 22.6433 6.70038 21.6213 6.17522 20.4944C5.99197 20.0935 5.55386 19.8765 5.12364 19.9733L2.67637 20.5319L2.04334 17.7399L4.49093 17.1816C4.92367 17.0838 5.22804 16.6949 5.217 16.2508C5.2047 15.0066 5.41887 13.7698 5.84972 12.6028C5.99954 12.1896 5.84026 11.7282 5.46807 11.4954L3.3463 10.1461L4.87258 7.71709L7.00349 9.05727C7.3741 9.29352 7.85888 9.23958 8.16673 8.92701C9.03316 8.03629 10.0551 7.31147 11.1821 6.78663C11.5795 6.60054 11.7924 6.16212 11.694 5.73505L11.1354 3.28746L13.9274 2.65475L14.4857 5.10202C14.5834 5.53477 14.9723 5.83914 15.4164 5.8281C16.6604 5.81863 17.8956 6.03374 19.0645 6.46081C19.4774 6.61063 19.9391 6.45166 20.1719 6.07916L21.5118 3.94825L23.9407 5.47452L22.6006 7.60544C22.3671 7.97762 22.4249 8.46241 22.7403 8.76867C23.6449 9.63511 24.3826 10.6605 24.9179 11.7931C25.104 12.1906 25.5424 12.4038 25.9695 12.3051L28.417 11.7468L29.1614 15.0223L16.6355 27.5113L16.5425 27.1669C16.4447 26.7342 16.0558 26.4298 15.6117 26.4411C14.3768 26.4497 13.1505 26.2355 11.9917 25.8084ZM44.256 15.1901C43.0761 16.383 41.4672 17.0533 39.7892 17.0514C39.2142 17.0514 38.6408 16.9731 38.0863 16.8186C37.7548 16.7199 37.3965 16.8129 37.1555 17.0605L17.6126 36.6034C17.365 36.8443 17.272 37.203 17.3707 37.5341C17.9782 39.7322 17.3603 42.0874 15.7514 43.7039C14.7333 44.7287 13.3912 45.3699 11.9545 45.5188L13.946 42.8201C15.2619 41.038 14.884 38.5271 13.102 37.2112C12.4112 36.7011 11.5757 36.4267 10.7168 36.4267C9.44351 36.4305 8.24684 37.0336 7.48733 38.0552L5.24476 41.0983C4.21715 37.7631 6.0888 34.2267 9.42301 33.1994C10.579 32.843 11.8129 32.8263 12.978 33.1509C13.3092 33.2496 13.6675 33.1566 13.9088 32.909L33.4516 13.3194C33.698 13.0784 33.7923 12.7201 33.6935 12.389C33.0829 10.1909 33.7017 7.83442 35.3129 6.21889C36.313 5.21305 37.6255 4.57655 39.0353 4.4138L37.2391 6.88914C35.9232 8.67216 36.3029 11.1847 38.086 12.5006C39.869 13.8165 42.3815 13.4368 43.6978 11.6537L45.8006 8.79674C46.5276 11.0488 45.9312 13.5178 44.256 15.1901Z" fill="#131D3B"/>
</g>
<defs>
<clipPath id="clip0_2110_70">
<rect width="48" height="48" fill="white"/>
</clipPath>
</defs>
</svg>