<svg width="56" height="54" viewBox="0 0 56 54" fill="none" xmlns="http://www.w3.org/2000/svg">
<path d="M52.0107 0.25C54.0481 0.250017 55.75 1.92479 55.75 3.94238V38.0723C55.6374 40.0758 53.9452 41.75 51.9053 41.75H3.98926C1.95195 41.75 0.25 40.0752 0.25 38.0576V3.94238C0.25 1.92479 1.95195 0.250017 3.98926 0.25H52.0107ZM3.98535 1.69043C2.74366 1.69043 1.69727 2.7279 1.69727 3.94238V38.0576C1.69727 39.2727 2.74422 40.3145 3.98535 40.3145H52.0059C53.247 40.3145 54.2939 39.2727 54.2939 38.0576V3.94238C54.2939 2.7279 53.2476 1.69043 52.0059 1.69043H3.98535Z" fill="#010101" stroke="black" stroke-width="0.5"/>
<path d="M52.0498 3.25C52.2371 3.25 52.4033 3.34139 52.5176 3.45605C52.6319 3.57082 52.7227 3.73775 52.7227 3.9248V31.9414C52.7796 32.1525 52.7456 32.3607 52.6084 32.5195C52.4688 32.6811 52.2585 32.75 52.0498 32.75H3.92676C3.7401 32.7499 3.57303 32.6588 3.45801 32.5449C3.34301 32.4309 3.25 32.2638 3.25 32.0752V3.9248C3.25 3.73777 3.34084 3.57106 3.45605 3.45605C3.57154 3.3409 3.73864 3.25011 3.92676 3.25H52.0498ZM4.70508 31.3037H51.373V4.59863H4.70508V31.3037Z" fill="#010101" stroke="black" stroke-width="0.5"/>
<path d="M19.9707 50.2686H35.3418L33.165 41.7275H22.1465L19.9707 50.2686ZM36.75 50.8467C36.75 50.9 36.7499 51.0017 36.7334 51.1055C36.7249 51.1589 36.7088 51.2269 36.6787 51.2959C36.6812 51.3071 36.685 51.3184 36.6865 51.3301C36.6978 51.4195 36.6734 51.5013 36.6328 51.5654C36.5572 51.6846 36.4224 51.7499 36.292 51.75H19.0205C18.9047 51.75 18.7817 51.6973 18.6963 51.6523C18.6022 51.6028 18.4991 51.5334 18.4229 51.4531C18.318 51.3427 18.2821 51.1986 18.2666 51.1016C18.2501 50.9979 18.25 50.898 18.25 50.8467V50.8164L18.2578 50.7861L20.7686 40.7676L20.7744 40.7441L20.7852 40.7217C20.8416 40.6029 20.9127 40.4808 21.0205 40.3906C21.1382 40.2923 21.2771 40.2501 21.4316 40.25H33.5723C33.7159 40.25 33.873 40.2875 34.002 40.3779C34.1282 40.4666 34.222 40.6056 34.2354 40.7852L36.7422 50.7861L36.75 50.8164V50.8467Z" fill="#010101" stroke="black" stroke-width="0.5"/>
<path d="M44.0605 50.25C44.2398 50.25 44.4018 50.3323 44.5156 50.4395C44.6285 50.5458 44.7236 50.7048 44.7236 50.8887V52.9814C44.7796 53.1831 44.744 53.3837 44.6055 53.5342C44.5251 53.6213 44.4214 53.6752 44.3105 53.708V53.75H11.917C11.7382 53.75 11.5755 53.668 11.4609 53.5615C11.3475 53.4561 11.25 53.297 11.25 53.1113V50.8887C11.25 50.7046 11.3451 50.545 11.459 50.4385C11.574 50.331 11.737 50.25 11.917 50.25H44.0605ZM12.6865 52.3799H43.3984V51.624H12.6865V52.3799Z" fill="#010101" stroke="black" stroke-width="0.5"/>
<path d="M27.9953 39.5C27.1981 39.5 26.5 38.8003 26.5 38C26.5 37.1997 27.1981 36.5 27.9953 36.5C28.7925 36.5 29.4906 37.1997 29.4906 38C29.5897 38.8003 28.8917 39.5 27.9953 39.5ZM27.9953 37.3003C27.6979 37.3003 27.3963 37.602 27.3963 37.8994C27.3963 38.1969 27.6938 38.4986 27.9953 38.4986C28.2968 38.4986 28.5943 38.1969 28.5943 37.8994C28.6934 37.5978 28.396 37.3003 27.9953 37.3003Z" fill="#010101"/>
<path d="M40.0626 21.5H32.9067C32.7034 21.5 32.5 21.2937 32.5 21.0916V13.9127C32.5 13.7063 32.7034 13.5 32.9067 13.5H40.0626C40.266 13.5 40.4736 13.7063 40.4736 13.9127V21.0916C40.5753 21.298 40.3719 21.5 40.0626 21.5ZM33.4194 20.5758H39.6559V14.3211H33.4194V20.5758Z" fill="#010101"/>
<path d="M47.0877 21.5H39.9081C39.704 21.5 39.5 21.2937 39.5 21.0916V13.9127C39.5 13.7063 39.704 13.5 39.9081 13.5H47.0877C47.2917 13.5 47.5 13.7063 47.5 13.9127V21.0916C47.5 21.298 47.296 21.5 47.0877 21.5ZM40.4224 20.5758H46.6796V14.3211H40.4224V20.5758Z" fill="#010101"/>
<path d="M40.0626 28.5H32.9067C32.7034 28.5 32.5 28.2937 32.5 28.0916V20.9127C32.5 20.7063 32.7034 20.5 32.9067 20.5H40.0626C40.266 20.5 40.4736 20.7063 40.4736 20.9127V28.0916C40.5753 28.298 40.3719 28.5 40.0626 28.5ZM33.4194 27.5801H39.6559V21.3254H33.4194V27.5801Z" fill="#010101"/>
<path d="M47.0877 28.5H39.9081C39.704 28.5 39.5 28.2937 39.5 28.0916V20.9127C39.5 20.7063 39.704 20.5 39.9081 20.5H47.0877C47.2917 20.5 47.5 20.7063 47.5 20.9127V28.0916C47.5 28.298 47.296 28.5 47.0877 28.5ZM40.4224 27.5801H46.6796V21.3254H40.4224V27.5801Z" fill="#010101"/>
<path d="M36.1782 16.5C36.0912 16.5 35.9172 16.3874 35.8302 16.2748L33.5571 12.2448C33.4701 12.0196 33.4702 11.6866 33.6442 11.574C33.8182 11.4614 34.0828 11.4614 34.1698 11.6866L36.4428 15.7165C36.5299 15.9417 36.5299 16.2748 36.3558 16.3874C36.3558 16.5 36.2688 16.5 36.1818 16.5H36.1782Z" fill="#010101"/>
<path d="M33.046 28.5C32.9247 28.5 32.8033 28.5 32.682 28.4075C32.4393 28.2225 32.4393 27.9489 32.682 27.8565L36.585 24.6387C36.8276 24.4538 37.1967 24.4538 37.318 24.6387C37.5607 24.8237 37.5607 25.0973 37.318 25.1898L33.4151 28.4075C33.2937 28.4075 33.1724 28.5 33.0511 28.5H33.046Z" fill="#010101"/>
<path d="M50.0579 17.5H43.9467C43.7257 17.5 43.5 17.2487 43.5 17.0026C43.5 16.7566 43.7211 16.5 43.9467 16.5H50.0579C50.2789 16.5 50.5 16.7513 50.5 17.0026C50.5 17.2539 50.3895 17.5 50.0579 17.5Z" fill="#010101"/>
</svg>