<svg width="56" height="56" viewBox="0 0 56 56" fill="none" xmlns="http://www.w3.org/2000/svg">
<path d="M48.65 16.1013C46.6892 13.933 43.4136 12.8488 38.6616 12.8488H38.108V12.7565C38.108 8.88111 38.108 4.08301 29.4345 4.08301H25.9282C17.2547 4.08301 17.2547 8.90418 17.2547 12.7565V12.8718H16.7011C11.9261 12.8718 8.6735 13.956 6.71274 16.1244C4.42903 18.6619 4.49823 22.0759 4.72891 24.4057L4.75197 24.5672L4.96532 26.8073C4.97629 26.9225 5.03811 27.0263 5.13463 27.0901C5.56345 27.3734 6.79571 28.1811 7.47397 28.5579C7.79692 28.7656 8.14294 28.9501 8.48896 29.1346C12.4336 31.303 16.7703 32.7563 21.1762 33.4714C21.3839 35.6398 22.3296 38.1772 27.3815 38.1772C32.4333 38.1772 33.4252 35.6628 33.5867 33.4252C38.2926 32.664 42.8369 31.0262 46.943 28.6271C47.0814 28.5579 47.1737 28.4887 47.289 28.4195C48.301 27.8475 49.355 27.1286 50.2909 26.443C50.3773 26.3796 50.4329 26.2829 50.4448 26.1764L50.5185 25.513L50.6338 24.4288C50.6569 24.2904 50.6569 24.1751 50.68 24.0136C50.8645 21.6837 50.8184 18.5004 48.65 16.1013ZM30.1958 31.9028C30.1958 34.348 30.1958 34.717 27.3584 34.717C24.5211 34.717 24.5211 34.2788 24.5211 31.9258V29.0193H30.1958V31.9028ZM20.5534 12.8488V12.7565C20.5534 8.83497 20.5534 7.3817 25.9282 7.3817H29.4345C34.8093 7.3817 34.8093 8.85804 34.8093 12.7565V12.8718H20.5534V12.8488Z" fill="#3A9BC6"/>
<path d="M49.3927 31.0836C49.6634 30.9516 49.9758 31.1664 49.9486 31.4663L48.996 41.9604C48.5115 46.574 46.62 51.2798 36.4701 51.2798H18.8925C8.74266 51.2798 6.8511 46.574 6.36667 41.9835L5.45879 31.9968C5.43185 31.7004 5.73691 31.4856 6.00695 31.6107C8.03654 32.5511 14.6368 35.5449 18.1151 36.3559C18.2423 36.3856 18.3432 36.4756 18.3923 36.5967C19.7077 39.8386 22.8128 41.5682 27.3814 41.5682C31.9048 41.5682 35.0534 39.7721 36.3705 36.5276C36.4197 36.4065 36.5205 36.3165 36.6478 36.2868C40.3299 35.429 47.2883 32.1098 49.3927 31.0836Z" fill="#3A9BC6"/>
</svg>