<svg width="56" height="56" viewBox="0 0 56 56" fill="none" xmlns="http://www.w3.org/2000/svg">
<path d="M24.7978 10.7035L14.5788 5.65165C9.0656 2.95272 4.54431 5.69779 4.54431 11.7415V45.9742C4.54431 48.6039 6.73575 50.7492 9.41162 50.7492H26.5279C27.7966 50.7492 28.8347 49.7111 28.8347 48.4424V17.0933C28.8347 14.6712 27.0123 11.7877 24.7978 10.7035ZM20.6918 31.7183H12.6872C11.7415 31.7183 10.9572 30.934 10.9572 29.9882C10.9572 29.0424 11.7415 28.2581 12.6872 28.2581H20.6918C21.6375 28.2581 22.4219 29.0424 22.4219 29.9882C22.4219 30.934 21.6606 31.7183 20.6918 31.7183ZM20.6918 22.4911H12.6872C11.7415 22.4911 10.9572 21.7068 10.9572 20.7611C10.9572 19.8153 11.7415 19.031 12.6872 19.031H20.6918C21.6375 19.031 22.4219 19.8153 22.4219 20.7611C22.4219 21.7068 21.6606 22.4911 20.6918 22.4911Z" fill="#3A9BC6"/>
<path d="M50.7492 41.6143V44.9822C50.7492 48.1655 48.1656 50.7491 44.9822 50.7491H34.5325C33.2868 50.7491 32.2949 49.7572 32.2949 48.5115V43.5289C34.7632 43.8288 37.3698 43.1137 39.2383 41.6143C40.8069 42.883 42.8138 43.6442 45.0053 43.6442C47.1506 43.6442 49.1575 42.883 50.7492 41.6143Z" fill="#3A9BC6"/>
<path d="M50.7492 34.7171V34.7402C50.5646 37.7621 48.0964 40.1842 45.0053 40.1842C41.7989 40.1842 39.2383 37.5776 39.2383 34.4173C39.2383 37.9466 35.9858 40.784 32.2949 40.0689V27.6815C32.2949 26.2051 33.6559 25.0979 35.1092 25.4208L39.2383 26.3435L40.3456 26.5973L45.0514 27.6584C46.1817 27.8891 47.2198 28.2812 48.1194 28.8579C48.1194 28.881 48.1425 28.881 48.1425 28.881C48.3732 29.0425 48.6039 29.227 48.8115 29.4346C49.8726 30.4957 50.5646 32.0413 50.7261 34.3019C50.7261 34.4403 50.7492 34.5787 50.7492 34.7171Z" fill="#3A9BC6"/>
</svg>