<svg width="56" height="56" viewBox="0 0 56 56" fill="none" xmlns="http://www.w3.org/2000/svg">
<path d="M25.9513 42.0989H20.761C18.2236 42.0989 16.1475 44.175 16.1475 46.7125V47.2892H13.8407C12.8949 47.2892 12.1106 48.0735 12.1106 49.0193C12.1106 49.965 12.8949 50.7494 13.8407 50.7494H41.522C42.4678 50.7494 43.2521 49.965 43.2521 49.0193C43.2521 48.0735 42.4678 47.2892 41.522 47.2892H39.2153V46.7125C39.2153 44.175 37.1392 42.0989 34.6017 42.0989H29.4114V36.8164C28.8347 36.8856 28.2581 36.9087 27.6814 36.9087C27.1047 36.9087 26.528 36.8856 25.9513 36.8164V42.0989Z" fill="#3A9BC6"/>
<path d="M42.6292 26.8511C44.1517 26.2744 45.4896 25.3287 46.5508 24.2675C48.6961 21.8916 50.1032 19.0542 50.1032 15.7324C50.1032 12.4107 47.4965 9.80402 44.1748 9.80402H42.883C41.3836 6.73601 38.2463 4.61377 34.6016 4.61377H20.761C17.1162 4.61377 13.979 6.73601 12.4796 9.80402H11.1878C7.86606 9.80402 5.2594 12.4107 5.2594 15.7324C5.2594 19.0542 6.66653 21.8916 8.81184 24.2675C9.87296 25.3287 11.2109 26.2744 12.7334 26.8511C15.1324 32.7565 20.8994 36.9087 27.6813 36.9087C34.4632 36.9087 40.2302 32.7565 42.6292 26.8511ZM34.2326 19.4925L32.8023 21.2457C32.5717 21.4994 32.4102 22.0069 32.4333 22.3529L32.5717 24.6135C32.6639 25.9976 31.672 26.7127 30.3802 26.2052L28.2811 25.3748C27.9581 25.2594 27.4045 25.2594 27.0815 25.3748L24.9824 26.2052C23.6906 26.7127 22.6987 25.9976 22.7909 24.6135L22.9293 22.3529C22.9524 22.0069 22.7909 21.4994 22.5602 21.2457L21.13 19.4925C20.2304 18.4314 20.6226 17.2549 21.9605 16.9089L24.1519 16.3553C24.4979 16.263 24.9132 15.9401 25.0977 15.6402L26.3203 13.7486C27.0815 12.5722 28.2811 12.5722 29.0423 13.7486L30.2649 15.6402C30.4494 15.9401 30.8647 16.263 31.2107 16.3553L33.4021 16.9089C34.74 17.2549 35.1322 18.4314 34.2326 19.4925Z" fill="#3A9BC6"/>
</svg>