<svg width="24" height="24" viewBox="0 0 24 24" fill="none" xmlns="http://www.w3.org/2000/svg">
<path d="M11.9097 7.32178C10.6925 7.32178 9.52517 7.8053 8.6645 8.66597C7.80383 9.52664 7.32031 10.694 7.32031 11.9111C7.32031 13.1283 7.80383 14.2956 8.6645 15.1563C9.52517 16.017 10.6925 16.5005 11.9097 16.5005C13.1268 16.5005 14.2942 16.017 15.1548 15.1563C16.0155 14.2956 16.499 13.1283 16.499 11.9111C16.499 10.694 16.0155 9.52664 15.1548 8.66597C14.2942 7.8053 13.1268 7.32178 11.9097 7.32178ZM11.9097 14.8916C11.1189 14.8916 10.3606 14.5775 9.80143 14.0184C9.24229 13.4592 8.92817 12.7009 8.92817 11.9101C8.92817 11.1194 9.24229 10.361 9.80143 9.8019C10.3606 9.24277 11.1189 8.92865 11.9097 8.92865C12.7004 8.92865 13.4588 9.24277 14.0179 9.8019C14.577 10.361 14.8911 11.1194 14.8911 11.9101C14.8911 12.7009 14.577 13.4592 14.0179 14.0184C13.4588 14.5775 12.7004 14.8916 11.9097 14.8916Z" fill="white"/>
<path d="M16.6808 8.2219C17.2714 8.2219 17.7502 7.74309 17.7502 7.15245C17.7502 6.56181 17.2714 6.08301 16.6808 6.08301C16.0901 6.08301 15.6113 6.56181 15.6113 7.15245C15.6113 7.74309 16.0901 8.2219 16.6808 8.2219Z" fill="white"/>
<path d="M20.3801 6.06539C20.1503 5.47205 19.7992 4.93322 19.3492 4.48339C18.8992 4.03357 18.3603 3.68265 17.7668 3.45311C17.0724 3.19244 16.3388 3.05149 15.5972 3.03626C14.6414 2.99458 14.3387 2.98267 11.915 2.98267C9.49131 2.98267 9.18066 2.98267 8.23281 3.03626C7.4918 3.05071 6.7587 3.19169 6.06518 3.45311C5.4716 3.68238 4.93249 4.0332 4.48246 4.48307C4.03243 4.93293 3.6814 5.4719 3.45191 6.06539C3.19118 6.75976 3.05055 7.49344 3.03605 8.23501C2.99337 9.1898 2.98047 9.49251 2.98047 11.9172C2.98047 14.3409 2.98047 14.6496 3.03605 15.5994C3.05094 16.3418 3.19088 17.0743 3.45191 17.77C3.68205 18.3633 4.03341 18.902 4.48356 19.3518C4.9337 19.8016 5.47272 20.1526 6.06617 20.3823C6.75838 20.6534 7.49178 20.8045 8.2348 20.8289C9.19058 20.8706 9.49329 20.8835 11.917 20.8835C14.3407 20.8835 14.6513 20.8835 15.5992 20.8289C16.3407 20.8138 17.0743 20.6732 17.7688 20.4131C18.3621 20.183 18.9009 19.8318 19.3508 19.3818C19.8008 18.9319 20.152 18.3931 20.3821 17.7998C20.6431 17.105 20.7831 16.3726 20.7979 15.6302C20.8406 14.6754 20.8535 14.3727 20.8535 11.948C20.8535 9.52328 20.8535 9.21561 20.7979 8.26578C20.7864 7.51373 20.645 6.76932 20.3801 6.06539ZM19.1712 15.526C19.1648 16.0979 19.0604 16.6646 18.8626 17.2013C18.7135 17.5873 18.4853 17.9378 18.1927 18.2302C17.9 18.5227 17.5494 18.7507 17.1634 18.8995C16.6326 19.0964 16.072 19.2009 15.5059 19.2082C14.563 19.2518 14.297 19.2627 11.8793 19.2627C9.45955 19.2627 9.21242 19.2627 8.25167 19.2082C7.68587 19.2012 7.1255 19.0968 6.59518 18.8995C6.20779 18.7516 5.85576 18.524 5.56187 18.2315C5.26798 17.939 5.03876 17.588 4.88906 17.2013C4.69398 16.6704 4.58963 16.1104 4.58039 15.5448C4.53771 14.6019 4.52779 14.3359 4.52779 11.9182C4.52779 9.49946 4.52779 9.25233 4.58039 8.29059C4.5868 7.71893 4.69121 7.1526 4.88906 6.61623C5.19177 5.83314 5.81209 5.2168 6.59518 4.91706C7.12576 4.72068 7.68597 4.6163 8.25167 4.60839C9.19554 4.56571 9.46054 4.5538 11.8793 4.5538C14.298 4.5538 14.5461 4.5538 15.5059 4.60839C16.072 4.6152 16.6327 4.71962 17.1634 4.91706C17.5494 5.06621 17.9 5.29441 18.1926 5.58703C18.4852 5.87965 18.7134 6.23022 18.8626 6.61623C19.0576 7.14717 19.162 7.70715 19.1712 8.27272C19.2139 9.2166 19.2248 9.4816 19.2248 11.9003C19.2248 14.3181 19.2248 14.5781 19.1821 15.527H19.1712V15.526Z" fill="white"/>
</svg>