<svg width="1229" height="378" viewBox="0 0 1229 378" fill="none" xmlns="http://www.w3.org/2000/svg">
<path d="M-1.52588e-05 369.641C-1.52588e-05 374.052 3.57581 377.627 7.98682 377.627C12.3978 377.627 15.9736 374.052 15.9736 369.641C15.9736 365.23 12.3978 361.654 7.98682 361.654C3.57581 361.654 -1.52588e-05 365.23 -1.52588e-05 369.641ZM1213 7.98682C1213 12.3978 1216.58 15.9736 1220.99 15.9736C1225.4 15.9736 1228.97 12.3978 1228.97 7.98682C1228.97 3.57581 1225.4 -1.52588e-05 1220.99 -1.52588e-05C1216.58 -1.52588e-05 1213 3.57581 1213 7.98682ZM7.98682 369.641H9.48435V367.433H7.98682H6.48929V369.641H7.98682ZM7.98682 363.019H9.48435V358.604H7.98682H6.48929V363.019H7.98682ZM7.98682 354.189H9.48435V349.775H7.98682H6.48929V354.189H7.98682ZM7.98682 345.36H9.48435V340.946H7.98682H6.48929V345.36H7.98682ZM7.98682 336.531H9.48435V332.116H7.98682H6.48929V336.531H7.98682ZM7.98682 327.702H9.48435V323.287H7.98682H6.48929V327.702H7.98682ZM7.98682 318.873H9.48435V314.458H7.98682H6.48929V318.873H7.98682ZM7.98682 310.044H9.48435V305.629H7.98682H6.48929V310.044H7.98682ZM7.98682 301.214H9.48435V296.8H7.98682H6.48929V301.214H7.98682ZM7.98682 292.385H9.48435V287.971H7.98682H6.48929V292.385H7.98682ZM7.98682 283.556H9.48435V279.141H7.98682H6.48929V283.556H7.98682ZM7.98682 274.727H9.48435V270.312H7.98682H6.48929V274.727H7.98682ZM7.98682 265.898H9.48435V261.483H7.98682H6.48929V265.898H7.98682ZM7.98682 257.068H9.48435V252.654H7.98682H6.48929V257.068H7.98682ZM7.98682 248.239H9.48435V243.825H7.98682H6.48929V248.239H7.98682ZM7.98682 239.41H9.48435V234.995H7.98682H6.48929V239.41H7.98682ZM7.98682 230.581H9.48435V226.166H7.98682H6.48929V230.581H7.98682ZM7.98682 221.752H9.48435V217.337H7.98682H6.48929V221.752H7.98682ZM7.98682 212.922H9.48435V208.508H7.98682H6.48929V212.922H7.98682ZM7.98682 204.093H9.48435V199.679H7.98682H6.48929V204.093H7.98682ZM7.98682 195.264H9.48435V190.849H7.98682H6.48929V195.264H7.98682ZM7.98682 186.435H9.48435V182.02H7.98682H6.48929V186.435H7.98682ZM7.98682 177.606H9.48435V173.191H7.98682H6.48929V177.606H7.98682ZM7.98682 168.776H9.48435V164.362H7.98682H6.48929V168.776H7.98682ZM7.98682 159.947H9.48435V157.74H7.98682H6.48929V159.947H7.98682ZM7.98682 157.74H9.48435C9.48435 156.989 9.48993 156.239 9.50105 155.491L8.00369 155.469L6.50632 155.447C6.49498 156.21 6.48929 156.974 6.48929 157.74H7.98682ZM8.13795 150.951L9.634 151.018C9.70083 149.52 9.7899 148.028 9.90087 146.542L8.4075 146.43L6.91412 146.318C6.80093 147.834 6.71008 149.357 6.64191 150.884L8.13795 150.951ZM8.81131 141.931L10.3007 142.088C10.4571 140.597 10.6356 139.113 10.8358 137.635L9.35188 137.434L7.86792 137.233C7.66362 138.74 7.48152 140.254 7.32195 141.775L8.81131 141.931ZM10.0271 132.962L11.5043 133.208C11.7499 131.733 12.0174 130.265 12.3063 128.805L10.8372 128.514L9.36817 128.223C9.0734 129.713 8.80053 131.211 8.54989 132.716L10.0271 132.962ZM11.7832 124.087L13.2428 124.422C13.5773 122.965 13.9332 121.517 14.3102 120.077L12.8616 119.698L11.4129 119.318C11.0282 120.787 10.665 122.265 10.3237 123.751L11.7832 124.087ZM14.0749 115.336L15.5114 115.759C15.9341 114.325 16.3779 112.9 16.8425 111.484L15.4196 111.017L13.9967 110.55C13.5226 111.995 13.0698 113.449 12.6385 114.913L14.0749 115.336ZM16.8942 106.743L18.3023 107.253C18.8117 105.846 19.3418 104.45 19.8922 103.063L18.5003 102.511L17.1085 101.958C16.5468 103.373 16.006 104.798 15.4862 106.233L16.8942 106.743ZM20.2325 98.3334L21.607 98.928C22.2005 97.556 22.8141 96.1948 23.4476 94.8447L22.0918 94.2086L20.7361 93.5726C20.0898 94.9501 19.4637 96.339 18.8581 97.7388L20.2325 98.3334ZM24.0756 90.142L25.4114 90.8189C26.0865 89.4866 26.7812 88.1659 27.495 86.8571L26.1803 86.1401L24.8655 85.423C24.1373 86.7583 23.4286 88.1058 22.7398 89.4651L24.0756 90.142ZM28.4072 82.2L29.6996 82.9565C30.4543 81.6672 31.2279 80.3903 32.02 79.1261L30.7511 78.331L29.4821 77.5358C28.674 78.8254 27.8847 80.1281 27.1148 81.4435L28.4072 82.2ZM33.2104 74.5348L34.4548 75.3679C35.286 74.1264 36.1355 72.898 37.0028 71.6834L35.7841 70.8131L34.5654 69.9429C33.6806 71.182 32.814 72.4351 31.966 73.7017L33.2104 74.5348ZM38.4678 67.1719L39.6598 68.0784C40.5639 66.8896 41.4856 65.7147 42.4245 64.5544L41.2603 63.6124L40.0961 62.6705C39.1384 63.8542 38.1981 65.0526 37.2758 66.2654L38.4678 67.1719ZM44.1585 60.1386L45.2938 61.1151C46.2675 59.983 47.258 58.8658 48.2649 57.7638L47.1594 56.7537L46.0539 55.7435C45.0268 56.8676 44.0164 58.0072 43.0231 59.162L44.1585 60.1386ZM50.2611 53.46L51.3357 54.5029C52.3755 53.4314 53.4313 52.3756 54.5028 51.3358L53.4599 50.2611L52.417 49.1865C51.324 50.2471 50.247 51.3241 49.1864 52.4171L50.2611 53.46ZM56.7536 47.1595L57.7637 48.265C58.8657 47.2581 59.9829 46.2676 61.115 45.2939L60.1385 44.1586L59.1619 43.0232C58.0071 44.0165 56.8675 45.0269 55.7434 46.054L56.7536 47.1595ZM63.6123 41.2604L64.5543 42.4246C65.7146 41.4857 66.8895 40.564 68.0783 39.6598L67.1718 38.4679L66.2653 37.2759C65.0525 38.1982 63.8541 39.1385 62.6704 40.0962L63.6123 41.2604ZM70.813 35.7842L71.6832 37.0029C72.8979 36.1356 74.1262 35.2861 75.3678 34.4549L74.5347 33.2105L73.7016 31.9661C72.435 32.814 71.1819 33.6806 69.9428 34.5655L70.813 35.7842ZM78.3308 30.7511L79.126 32.0201C80.3901 31.2279 81.667 30.4543 82.9563 29.6996L82.1998 28.4072L81.4433 27.1148C80.128 27.8848 78.8253 28.674 77.5357 29.4821L78.3308 30.7511ZM86.1399 26.1803L86.857 27.495C88.1658 26.7812 89.4865 26.0865 90.8188 25.4114L90.1419 24.0756L89.465 22.7398C88.1057 23.4286 86.7582 24.1373 85.4229 24.8656L86.1399 26.1803ZM94.2085 22.0919L94.8446 23.4476C96.1947 22.8142 97.5559 22.2005 98.9279 21.607L98.3333 20.2326L97.7387 18.8581C96.3388 19.4637 94.95 20.0898 93.5724 20.7361L94.2085 22.0919ZM102.51 18.5004L103.063 19.8922C104.449 19.3418 105.846 18.8117 107.253 18.3023L106.743 16.8943L106.233 15.4862C104.798 16.006 103.372 16.5469 101.958 17.1085L102.51 18.5004ZM111.017 15.4196L111.484 16.8425C112.9 16.3779 114.325 15.9341 115.759 15.5114L115.336 14.075L114.913 12.6385C113.449 13.0698 111.995 13.5227 110.55 13.9967L111.017 15.4196ZM119.697 12.8616L120.077 14.3103C121.517 13.9332 122.965 13.5773 124.422 13.2428L124.086 11.7833L123.751 10.3237C122.265 10.665 120.787 11.0282 119.318 11.4129L119.697 12.8616ZM128.514 10.8372L128.804 12.3063C130.265 12.0174 131.733 11.75 133.208 11.5043L132.962 10.0271L132.716 8.5499C131.211 8.80054 129.713 9.07342 128.223 9.36818L128.514 10.8372ZM137.434 9.35189L137.635 10.8358C139.112 10.6356 140.597 10.4571 142.087 10.3007L141.931 8.81132L141.775 7.32196C140.254 7.48152 138.74 7.66363 137.233 7.86793L137.434 9.35189ZM146.43 8.4075L146.541 9.90088C148.027 9.7899 149.52 9.70084 151.018 9.634L150.951 8.13796L150.884 6.64191C149.356 6.71009 147.834 6.80093 146.318 6.91413L146.43 8.4075ZM155.469 8.00369L155.491 9.50106C156.239 9.48993 156.989 9.48435 157.74 9.48435V7.98682V6.48929C156.974 6.48929 156.21 6.49498 155.446 6.50632L155.469 8.00369ZM157.74 7.98682V9.48435H158.676V7.98682V6.48929H157.74V7.98682ZM160.548 7.98682V9.48435H161.484V7.98682V6.48929H160.548V7.98682ZM161.484 7.98682V9.48435C162.235 9.48435 162.984 9.48993 163.733 9.50105L163.755 8.00369L163.777 6.50632C163.014 6.49498 162.25 6.48929 161.484 6.48929V7.98682ZM168.272 8.13795L168.206 9.634C169.704 9.70083 171.196 9.7899 172.682 9.90087L172.794 8.4075L172.905 6.91412C171.389 6.80093 169.867 6.71008 168.339 6.64191L168.272 8.13795ZM177.292 8.81131L177.136 10.3007C178.627 10.4571 180.111 10.6356 181.588 10.8358L181.79 9.35188L181.991 7.86792C180.484 7.66362 178.969 7.48151 177.449 7.32195L177.292 8.81131ZM186.261 10.0271L186.015 11.5043C187.491 11.7499 188.959 12.0174 190.419 12.3063L190.71 10.8372L191 9.36816C189.51 9.0734 188.013 8.80053 186.507 8.54989L186.261 10.0271ZM195.137 11.7832L194.802 13.2428C196.259 13.5773 197.707 13.9332 199.147 14.3102L199.526 12.8616L199.906 11.4129C198.436 11.0282 196.959 10.665 195.472 10.3237L195.137 11.7832ZM203.888 14.0749L203.464 15.5114C204.899 15.9341 206.324 16.3779 207.74 16.8425L208.207 15.4196L208.674 13.9967C207.229 13.5226 205.774 13.0698 204.311 12.6385L203.888 14.0749ZM212.481 16.8942L211.971 18.3023C213.377 18.8117 214.774 19.3418 216.161 19.8922L216.713 18.5003L217.266 17.1084C215.851 16.5468 214.426 16.006 212.991 15.4862L212.481 16.8942ZM220.89 20.2325L220.296 21.607C221.668 22.2005 223.029 22.8141 224.379 23.4476L225.015 22.0918L225.651 20.7361C224.274 20.0898 222.885 19.4637 221.485 18.8581L220.89 20.2325ZM229.082 24.0756L228.405 25.4114C229.737 26.0865 231.058 26.7812 232.367 27.495L233.084 26.1803L233.801 24.8655C232.465 24.1373 231.118 23.4286 229.759 22.7397L229.082 24.0756ZM237.024 28.4072L236.267 29.6996C237.557 30.4543 238.833 31.2279 240.098 32.02L240.893 30.7511L241.688 29.4821C240.398 28.674 239.096 27.8847 237.78 27.1148L237.024 28.4072ZM244.689 33.2104L243.856 34.4548C245.097 35.286 246.326 36.1355 247.54 37.0028L248.411 35.7841L249.281 34.5654C248.042 33.6806 246.789 32.814 245.522 31.966L244.689 33.2104ZM252.052 38.4678L251.145 39.6598C252.334 40.5639 253.509 41.4856 254.669 42.4245L255.611 41.2603L256.553 40.0961C255.37 39.1384 254.171 38.1981 252.958 37.2758L252.052 38.4678ZM259.085 44.1585L258.109 45.2939C259.241 46.2676 260.358 47.258 261.46 48.265L262.47 47.1594L263.48 46.0539C262.356 45.0268 261.216 44.0164 260.062 43.0232L259.085 44.1585ZM265.764 50.2611L264.721 51.3358C265.792 52.3755 266.848 53.4313 267.888 54.5028L268.963 53.4599L270.037 52.417C268.977 51.324 267.9 50.247 266.807 49.1864L265.764 50.2611ZM272.064 56.7536L270.959 57.7638C271.966 58.8657 272.956 59.9829 273.93 61.115L275.065 60.1385L276.2 59.162C275.207 58.0071 274.197 56.8675 273.17 55.7434L272.064 56.7536ZM277.963 63.6123L276.799 64.5543C277.738 65.7147 278.66 66.8895 279.564 68.0783L280.756 67.1718L281.948 66.2653C281.025 65.0525 280.085 63.8541 279.128 62.6704L277.963 63.6123ZM283.44 70.813L282.221 71.6833C283.088 72.898 283.938 74.1263 284.769 75.3678L286.013 74.5347L287.258 73.7016C286.41 72.435 285.543 71.182 284.658 69.9428L283.44 70.813ZM288.473 78.3309L287.204 79.1261C287.996 80.3902 288.769 81.6671 289.524 82.9564L290.816 82.1999L292.109 81.4434C291.339 80.128 290.55 78.8253 289.742 77.5357L288.473 78.3309ZM293.043 86.14L291.729 86.857C292.442 88.1658 293.137 89.4865 293.812 90.8188L295.148 90.1419L296.484 89.465C295.795 88.1057 295.086 86.7582 294.358 85.4229L293.043 86.14ZM297.132 94.2085L295.776 94.8446C296.409 96.1947 297.023 97.5559 297.617 98.9279L298.991 98.3333L300.366 97.7387C299.76 96.3389 299.134 94.95 298.488 93.5725L297.132 94.2085ZM300.723 102.51L299.331 103.063C299.882 104.449 300.412 105.846 300.921 107.253L302.329 106.743L303.737 106.233C303.218 104.798 302.677 103.373 302.115 101.958L300.723 102.51ZM303.804 111.017L302.381 111.484C302.846 112.9 303.29 114.325 303.712 115.759L305.149 115.336L306.585 114.913C306.154 113.449 305.701 111.995 305.227 110.55L303.804 111.017ZM306.362 119.697L304.913 120.077C305.29 121.517 305.646 122.965 305.981 124.422L307.44 124.086L308.9 123.751C308.559 122.265 308.195 120.787 307.811 119.318L306.362 119.697ZM308.386 128.514L306.917 128.804C307.206 130.265 307.474 131.733 307.719 133.208L309.197 132.962L310.674 132.716C310.423 131.211 310.15 129.713 309.855 128.223L308.386 128.514ZM309.872 137.434L308.388 137.635C308.588 139.112 308.767 140.597 308.923 142.088L310.412 141.931L311.902 141.775C311.742 140.254 311.56 138.74 311.356 137.233L309.872 137.434ZM310.816 146.43L309.323 146.541C309.434 148.028 309.523 149.52 309.59 151.018L311.086 150.951L312.582 150.884C312.514 149.356 312.423 147.834 312.31 146.318L310.816 146.43ZM311.22 155.469L309.723 155.491C309.734 156.239 309.739 156.989 309.739 157.74H311.237H312.734C312.734 156.974 312.729 156.21 312.717 155.446L311.22 155.469ZM311.237 157.74H309.739V159.959H311.237H312.734V157.74H311.237ZM311.237 164.399H309.739V168.838H311.237H312.734V164.399H311.237ZM311.237 173.277H309.739V177.716H311.237H312.734V173.277H311.237ZM311.237 182.155H309.739V186.594H311.237H312.734V182.155H311.237ZM311.237 191.033H309.739V195.472H311.237H312.734V191.033H311.237ZM311.237 199.911H309.739V204.35H311.237H312.734V199.911H311.237ZM311.237 208.79H309.739V213.229H311.237H312.734V208.79H311.237ZM311.237 217.668H309.739V219.887H311.237H312.734V217.668H311.237ZM311.237 219.887H309.739C309.739 220.653 309.745 221.418 309.756 222.181L311.254 222.158L312.751 222.136C312.74 221.388 312.734 220.638 312.734 219.887H311.237ZM311.388 226.676L309.892 226.743C309.96 228.271 310.051 229.793 310.164 231.309L311.658 231.197L313.151 231.086C313.04 229.6 312.951 228.107 312.884 226.609L311.388 226.676ZM312.061 235.696L310.572 235.852C310.732 237.373 310.914 238.887 311.118 240.394L312.602 240.193L314.086 239.992C313.886 238.515 313.707 237.031 313.551 235.54L312.061 235.696ZM313.277 244.665L311.8 244.911C312.051 246.416 312.323 247.914 312.618 249.404L314.087 249.113L315.556 248.823C315.267 247.363 315 245.894 314.754 244.419L313.277 244.665ZM315.033 253.541L313.574 253.876C313.915 255.362 314.278 256.84 314.663 258.309L316.112 257.93L317.56 257.55C317.183 256.111 316.827 254.662 316.493 253.206L315.033 253.541ZM317.325 262.291L315.888 262.715C316.32 264.178 316.773 265.632 317.247 267.077L318.67 266.61L320.092 266.144C319.628 264.728 319.184 263.302 318.761 261.868L317.325 262.291ZM320.144 270.884L318.736 271.394C319.256 272.83 319.797 274.255 320.358 275.669L321.75 275.117L323.142 274.564C322.592 273.178 322.062 271.781 321.552 270.374L320.144 270.884ZM323.483 279.294L322.108 279.889C322.714 281.288 323.34 282.677 323.986 284.055L325.342 283.419L326.698 282.783C326.064 281.433 325.45 280.071 324.857 278.699L323.483 279.294ZM327.326 287.485L325.99 288.162C326.679 289.522 327.387 290.869 328.116 292.204L329.43 291.487L330.745 290.77C330.031 289.461 329.336 288.141 328.661 286.808L327.326 287.485ZM331.657 295.427L330.365 296.184C331.135 297.499 331.924 298.802 332.732 300.092L334.001 299.296L335.27 298.501C334.478 297.237 333.704 295.96 332.95 294.671L331.657 295.427ZM336.46 303.093L335.216 303.926C336.064 305.192 336.931 306.445 337.815 307.684L339.034 306.814L340.253 305.944C339.385 304.729 338.536 303.501 337.705 302.259L336.46 303.093ZM341.718 310.455L340.526 311.362C341.448 312.575 342.388 313.773 343.346 314.957L344.51 314.015L345.674 313.073C344.736 311.913 343.814 310.738 342.91 309.549L341.718 310.455ZM347.408 317.489L346.273 318.465C347.266 319.62 348.277 320.76 349.304 321.884L350.409 320.874L351.515 319.864C350.508 318.762 349.518 317.644 348.544 316.512L347.408 317.489ZM353.511 324.167L352.436 325.21C353.497 326.303 354.574 327.38 355.667 328.441L356.71 327.366L357.753 326.292C356.681 325.252 355.625 324.196 354.586 323.124L353.511 324.167ZM360.004 330.468L358.993 331.573C360.117 332.6 361.257 333.611 362.412 334.604L363.388 333.469L364.365 332.333C363.233 331.36 362.116 330.369 361.014 329.362L360.004 330.468ZM366.862 336.367L365.92 337.531C367.104 338.489 368.302 339.429 369.515 340.351L370.422 339.159L371.328 337.968C370.139 337.063 368.965 336.142 367.804 335.203L366.862 336.367ZM374.063 341.843L373.193 343.062C374.432 343.947 375.685 344.813 376.952 345.661L377.785 344.417L378.618 343.172C377.376 342.341 376.148 341.492 374.933 340.624L374.063 341.843ZM381.581 346.876L380.786 348.145C382.075 348.953 383.378 349.743 384.693 350.513L385.45 349.22L386.206 347.928C384.917 347.173 383.64 346.399 382.376 345.607L381.581 346.876ZM389.39 351.447L388.673 352.762C390.008 353.49 391.356 354.199 392.715 354.888L393.392 353.552L394.069 352.216C392.736 351.541 391.416 350.846 390.107 350.132L389.39 351.447ZM397.458 355.535L396.822 356.891C398.2 357.538 399.589 358.164 400.989 358.769L401.583 357.395L402.178 356.02C400.806 355.427 399.445 354.813 398.095 354.18L397.458 355.535ZM405.76 359.127L405.208 360.519C406.622 361.08 408.048 361.621 409.483 362.141L409.993 360.733L410.503 359.325C409.096 358.816 407.699 358.286 406.313 357.735L405.76 359.127ZM414.267 362.208L413.8 363.631C415.245 364.105 416.699 364.558 418.163 364.989L418.586 363.552L419.009 362.116C417.575 361.693 416.15 361.249 414.734 360.785L414.267 362.208ZM422.947 364.766L422.568 366.214C424.037 366.599 425.515 366.962 427.001 367.304L427.336 365.844L427.672 364.385C426.215 364.05 424.767 363.694 423.327 363.317L422.947 364.766ZM431.764 366.79L431.473 368.259C432.963 368.554 434.461 368.827 435.966 369.077L436.212 367.6L436.458 366.123C434.983 365.877 433.515 365.61 432.054 365.321L431.764 366.79ZM440.684 368.275L440.483 369.759C441.99 369.964 443.504 370.146 445.025 370.305L445.181 368.816L445.337 367.327C443.847 367.17 442.362 366.992 440.885 366.792L440.684 368.275ZM449.68 369.22L449.568 370.713C451.084 370.826 452.606 370.917 454.134 370.985L454.201 369.489L454.268 367.993C452.77 367.927 451.277 367.837 449.791 367.726L449.68 369.22ZM458.719 369.624L458.696 371.121C459.46 371.132 460.224 371.138 460.99 371.138V369.641V368.143C460.239 368.143 459.489 368.137 458.741 368.126L458.719 369.624ZM460.99 369.641V371.138H461.926V369.641V368.143H460.99V369.641ZM463.798 369.641V371.138H464.734V369.641V368.143H463.798V369.641ZM464.734 369.641V371.138C465.499 371.138 466.264 371.132 467.027 371.121L467.005 369.624L466.983 368.126C466.234 368.137 465.485 368.143 464.734 368.143V369.641ZM471.522 369.489L471.589 370.985C473.117 370.917 474.639 370.826 476.155 370.713L476.044 369.22L475.932 367.726C474.446 367.837 472.954 367.927 471.456 367.993L471.522 369.489ZM480.542 368.816L480.699 370.305C482.219 370.146 483.734 369.964 485.241 369.759L485.04 368.275L484.838 366.792C483.361 366.992 481.877 367.17 480.386 367.327L480.542 368.816ZM489.511 367.6L489.757 369.077C491.263 368.827 492.76 368.554 494.25 368.259L493.96 366.79L493.669 365.321C492.209 365.61 490.741 365.877 489.265 366.123L489.511 367.6ZM498.387 365.844L498.722 367.304C500.209 366.962 501.686 366.599 503.156 366.214L502.776 364.766L502.397 363.317C500.957 363.694 499.509 364.05 498.052 364.385L498.387 365.844ZM507.138 363.552L507.561 364.989C509.024 364.558 510.479 364.105 511.924 363.631L511.457 362.208L510.99 360.785C509.574 361.249 508.149 361.693 506.714 362.116L507.138 363.552ZM515.731 360.733L516.241 362.141C517.676 361.621 519.101 361.081 520.516 360.519L519.963 359.127L519.411 357.735C518.024 358.286 516.627 358.816 515.221 359.325L515.731 360.733ZM524.14 357.395L524.735 358.769C526.135 358.164 527.524 357.538 528.901 356.891L528.265 355.536L527.629 354.18C526.279 354.813 524.918 355.427 523.546 356.02L524.14 357.395ZM532.332 353.552L533.009 354.888C534.368 354.199 535.715 353.49 537.051 352.762L536.334 351.447L535.617 350.132C534.308 350.846 532.987 351.541 531.655 352.216L532.332 353.552ZM540.274 349.22L541.03 350.513C542.346 349.743 543.648 348.953 544.938 348.145L544.143 346.876L543.348 345.607C542.083 346.399 540.807 347.173 539.517 347.928L540.274 349.22ZM547.939 344.417L548.772 345.661C550.039 344.813 551.292 343.947 552.531 343.062L551.661 341.843L550.79 340.625C549.576 341.492 548.347 342.341 547.106 343.173L547.939 344.417ZM555.302 339.16L556.208 340.352C557.421 339.429 558.62 338.489 559.803 337.531L558.861 336.367L557.919 335.203C556.759 336.142 555.584 337.063 554.395 337.968L555.302 339.16ZM562.335 333.469L563.312 334.604C564.466 333.611 565.606 332.601 566.73 331.573L565.72 330.468L564.71 329.362C563.608 330.369 562.491 331.36 561.359 332.333L562.335 333.469ZM569.014 327.366L570.057 328.441C571.15 327.38 572.227 326.303 573.287 325.21L572.213 324.167L571.138 323.125C570.098 324.196 569.042 325.252 567.971 326.292L569.014 327.366ZM575.314 320.874L576.42 321.884C577.447 320.76 578.457 319.62 579.45 318.465L578.315 317.489L577.18 316.512C576.206 317.644 575.216 318.762 574.209 319.864L575.314 320.874ZM581.213 314.015L582.378 314.957C583.335 313.773 584.275 312.575 585.198 311.362L584.006 310.456L582.814 309.549C581.91 310.738 580.988 311.913 580.049 313.073L581.213 314.015ZM586.69 306.814L587.908 307.685C588.793 306.445 589.66 305.192 590.508 303.926L589.263 303.093L588.019 302.26C587.188 303.501 586.338 304.729 585.471 305.944L586.69 306.814ZM591.723 299.296L592.992 300.092C593.8 298.802 594.589 297.499 595.359 296.184L594.066 295.427L592.774 294.671C592.019 295.96 591.246 297.237 590.454 298.501L591.723 299.296ZM596.293 291.487L597.608 292.204C598.336 290.869 599.045 289.522 599.734 288.162L598.398 287.485L597.062 286.809C596.387 288.141 595.692 289.462 594.979 290.77L596.293 291.487ZM600.382 283.419L601.738 284.055C602.384 282.677 603.01 281.288 603.616 279.889L602.241 279.294L600.867 278.699C600.273 280.071 599.659 281.433 599.026 282.783L600.382 283.419ZM603.973 275.117L605.365 275.669C605.927 274.255 606.468 272.83 606.987 271.394L605.579 270.884L604.171 270.375C603.662 271.781 603.132 273.178 602.581 274.564L603.973 275.117ZM607.054 266.611L608.477 267.077C608.951 265.633 609.404 264.178 609.835 262.715L608.399 262.291L606.962 261.868C606.54 263.302 606.096 264.728 605.631 266.144L607.054 266.611ZM609.612 257.93L611.061 258.309C611.445 256.84 611.809 255.362 612.15 253.876L610.69 253.541L609.231 253.206C608.896 254.662 608.54 256.111 608.163 257.551L609.612 257.93ZM611.636 249.114L613.105 249.404C613.4 247.914 613.673 246.416 613.924 244.911L612.447 244.665L610.969 244.419C610.724 245.895 610.456 247.363 610.167 248.823L611.636 249.114ZM613.122 240.193L614.606 240.394C614.81 238.887 614.992 237.373 615.152 235.852L613.662 235.696L612.173 235.54C612.017 237.031 611.838 238.515 611.638 239.992L613.122 240.193ZM614.066 231.197L615.56 231.309C615.673 229.793 615.764 228.271 615.832 226.743L614.336 226.676L612.84 226.609C612.773 228.108 612.684 229.6 612.573 231.086L614.066 231.197ZM614.47 222.159L615.967 222.181C615.979 221.418 615.984 220.653 615.984 219.887H614.487H612.989C612.989 220.638 612.984 221.388 612.973 222.136L614.47 222.159ZM614.487 219.887H615.984V217.668H614.487H612.989V219.887H614.487ZM614.487 213.229H615.984V208.79H614.487H612.989V213.229H614.487ZM614.487 204.351H615.984V199.911H614.487H612.989V204.351H614.487ZM614.487 195.472H615.984V191.033H614.487H612.989V195.472H614.487ZM614.487 186.594H615.984V182.155H614.487H612.989V186.594H614.487ZM614.487 177.716H615.984V173.277H614.487H612.989V177.716H614.487ZM614.487 168.838H615.984V164.399H614.487H612.989V168.838H614.487ZM614.487 159.96H615.984V157.74H614.487H612.989V159.96H614.487ZM614.487 157.74H615.984C615.984 156.989 615.99 156.239 616.001 155.491L614.504 155.469L613.006 155.447C612.995 156.21 612.989 156.974 612.989 157.74H614.487ZM614.638 150.951L616.134 151.018C616.201 149.52 616.29 148.028 616.401 146.542L614.907 146.43L613.414 146.318C613.301 147.834 613.21 149.357 613.142 150.884L614.638 150.951ZM615.311 141.931L616.801 142.088C616.957 140.597 617.136 139.113 617.336 137.635L615.852 137.434L614.368 137.233C614.164 138.74 613.982 140.254 613.822 141.775L615.311 141.931ZM616.527 132.962L618.004 133.208C618.25 131.733 618.517 130.265 618.806 128.805L617.337 128.514L615.868 128.223C615.573 129.713 615.301 131.211 615.05 132.716L616.527 132.962ZM618.283 124.087L619.743 124.422C620.077 122.965 620.433 121.517 620.81 120.077L619.362 119.698L617.913 119.318C617.528 120.787 617.165 122.265 616.824 123.751L618.283 124.087ZM620.575 115.336L622.011 115.759C622.434 114.325 622.878 112.9 623.342 111.484L621.92 111.017L620.497 110.55C620.023 111.995 619.57 113.449 619.138 114.913L620.575 115.336ZM623.394 106.743L624.802 107.253C625.312 105.846 625.842 104.45 626.392 103.063L625 102.511L623.608 101.958C623.047 103.373 622.506 104.798 621.986 106.233L623.394 106.743ZM626.732 98.3334L628.107 98.928C628.7 97.556 629.314 96.1948 629.948 94.8447L628.592 94.2086L627.236 93.5726C626.59 94.9501 625.964 96.339 625.358 97.7388L626.732 98.3334ZM630.576 90.142L631.911 90.8189C632.586 89.4866 633.281 88.1659 633.995 86.8571L632.68 86.1401L631.366 85.423C630.637 86.7583 629.929 88.1058 629.24 89.4651L630.576 90.142ZM634.907 82.2L636.2 82.9565C636.954 81.6672 637.728 80.3903 638.52 79.1261L637.251 78.331L635.982 77.5358C635.174 78.8254 634.385 80.1281 633.615 81.4435L634.907 82.2ZM639.71 74.5348L640.955 75.3679C641.786 74.1264 642.635 72.898 643.503 71.6834L642.284 70.8131L641.065 69.9429C640.181 71.182 639.314 72.4351 638.466 73.7017L639.71 74.5348ZM644.968 67.1719L646.16 68.0784C647.064 66.8896 647.986 65.7147 648.924 64.5544L647.76 63.6124L646.596 62.6705C645.638 63.8542 644.698 65.0526 643.776 66.2654L644.968 67.1719ZM650.659 60.1386L651.794 61.1151C652.768 59.983 653.758 58.8658 654.765 57.7638L653.659 56.7537L652.554 55.7435C651.527 56.8676 650.516 58.0072 649.523 59.162L650.659 60.1386ZM656.761 53.46L657.836 54.5029C658.875 53.4314 659.931 52.3756 661.003 51.3358L659.96 50.2611L658.917 49.1865C657.824 50.2471 656.747 51.3241 655.686 52.4171L656.761 53.46ZM663.254 47.1595L664.264 48.265C665.366 47.2581 666.483 46.2676 667.615 45.2939L666.638 44.1586L665.662 43.0232C664.507 44.0165 663.367 45.0269 662.243 46.054L663.254 47.1595ZM670.112 41.2604L671.054 42.4246C672.215 41.4857 673.389 40.564 674.578 39.6598L673.672 38.4679L672.765 37.2759C671.552 38.1982 670.354 39.1385 669.17 40.0962L670.112 41.2604ZM677.313 35.7842L678.183 37.0029C679.398 36.1356 680.626 35.2861 681.868 34.4549L681.035 33.2105L680.202 31.9661C678.935 32.814 677.682 33.6806 676.443 34.5655L677.313 35.7842ZM684.831 30.7511L685.626 32.0201C686.89 31.2279 688.167 30.4543 689.456 29.6996L688.7 28.4072L687.943 27.1148C686.628 27.8848 685.325 28.674 684.036 29.4821L684.831 30.7511ZM692.64 26.1803L693.357 27.495C694.666 26.7812 695.987 26.0865 697.319 25.4114L696.642 24.0756L695.965 22.7398C694.606 23.4286 693.258 24.1373 691.923 24.8656L692.64 26.1803ZM700.708 22.0919L701.345 23.4476C702.695 22.8142 704.056 22.2005 705.428 21.607L704.833 20.2326L704.239 18.8581C702.839 19.4637 701.45 20.0898 700.072 20.7361L700.708 22.0919ZM709.01 18.5004L709.563 19.8922C710.949 19.3418 712.346 18.8117 713.753 18.3023L713.243 16.8943L712.733 15.4862C711.298 16.006 709.872 16.5469 708.458 17.1085L709.01 18.5004ZM717.517 15.4196L717.984 16.8425C719.4 16.3779 720.825 15.9341 722.259 15.5114L721.836 14.075L721.413 12.6385C719.949 13.0698 718.495 13.5227 717.05 13.9967L717.517 15.4196ZM726.197 12.8616L726.577 14.3103C728.017 13.9332 729.465 13.5773 730.922 13.2428L730.586 11.7833L730.251 10.3237C728.765 10.665 727.287 11.0282 725.818 11.4129L726.197 12.8616ZM735.014 10.8372L735.304 12.3063C736.765 12.0174 738.233 11.75 739.708 11.5043L739.462 10.0271L739.216 8.5499C737.711 8.80054 736.213 9.07342 734.723 9.36818L735.014 10.8372ZM743.934 9.35189L744.135 10.8358C745.612 10.6356 747.097 10.4571 748.587 10.3007L748.431 8.81132L748.275 7.32196C746.754 7.48152 745.24 7.66363 743.733 7.86793L743.934 9.35189ZM752.93 8.4075L753.041 9.90088C754.527 9.7899 756.02 9.70084 757.518 9.634L757.451 8.13796L757.384 6.64191C755.856 6.71009 754.334 6.80093 752.818 6.91413L752.93 8.4075ZM761.969 8.00369L761.991 9.50106C762.739 9.48993 763.489 9.48435 764.24 9.48435V7.98682V6.48929C763.474 6.48929 762.71 6.49498 761.946 6.50632L761.969 8.00369ZM764.24 7.98682V9.48435H765.269V7.98682V6.48929H764.24V7.98682ZM767.329 7.98682V9.48435H768.358V7.98682V6.48929H767.329V7.98682ZM768.358 7.98682V9.48435C769.109 9.48435 769.859 9.48993 770.607 9.50105L770.629 8.00369L770.651 6.50632C769.888 6.49498 769.124 6.48929 768.358 6.48929V7.98682ZM775.147 8.13795L775.08 9.634C776.578 9.70083 778.07 9.7899 779.557 9.90087L779.668 8.4075L779.78 6.91412C778.264 6.80093 776.742 6.71008 775.214 6.64191L775.147 8.13795ZM784.167 8.81131L784.01 10.3007C785.501 10.4571 786.985 10.6356 788.463 10.8358L788.664 9.35188L788.865 7.86792C787.358 7.66362 785.844 7.48151 784.323 7.32195L784.167 8.81131ZM793.136 10.0271L792.89 11.5043C794.365 11.7499 795.833 12.0174 797.294 12.3063L797.584 10.8372L797.875 9.36816C796.385 9.0734 794.887 8.80053 793.382 8.54989L793.136 10.0271ZM802.012 11.7832L801.676 13.2428C803.133 13.5773 804.581 13.9332 806.021 14.3102L806.401 12.8616L806.78 11.4129C805.311 11.0282 803.833 10.665 802.347 10.3237L802.012 11.7832ZM810.762 14.0749L810.339 15.5114C811.773 15.9341 813.198 16.3779 814.614 16.8425L815.081 15.4196L815.548 13.9967C814.103 13.5226 812.649 13.0698 811.185 12.6385L810.762 14.0749ZM819.355 16.8942L818.845 18.3023C820.252 18.8117 821.648 19.3418 823.035 19.8922L823.588 18.5003L824.14 17.1084C822.725 16.5468 821.3 16.006 819.865 15.4862L819.355 16.8942ZM827.765 20.2325L827.17 21.607C828.542 22.2005 829.903 22.8141 831.253 23.4476L831.889 22.0918L832.526 20.7361C831.148 20.0898 829.759 19.4637 828.359 18.8581L827.765 20.2325ZM835.956 24.0756L835.279 25.4114C836.611 26.0865 837.932 26.7812 839.241 27.495L839.958 26.1803L840.675 24.8655C839.34 24.1373 837.992 23.4286 836.633 22.7397L835.956 24.0756ZM843.898 28.4072L843.142 29.6996C844.431 30.4543 845.708 31.2279 846.972 32.02L847.767 30.7511L848.562 29.4821C847.273 28.674 845.97 27.8847 844.655 27.1148L843.898 28.4072ZM851.563 33.2104L850.73 34.4548C851.972 35.286 853.2 36.1355 854.415 37.0028L855.285 35.7841L856.155 34.5654C854.916 33.6806 853.663 32.814 852.396 31.966L851.563 33.2104ZM858.926 38.4678L858.02 39.6598C859.208 40.5639 860.383 41.4856 861.544 42.4245L862.486 41.2603L863.428 40.0961C862.244 39.1384 861.045 38.1981 859.833 37.2758L858.926 38.4678ZM865.96 44.1585L864.983 45.2939C866.115 46.2676 867.232 47.258 868.334 48.265L869.344 47.1594L870.355 46.0539C869.23 45.0268 868.091 44.0164 866.936 43.0232L865.96 44.1585ZM872.638 50.2611L871.595 51.3358C872.667 52.3755 873.722 53.4313 874.762 54.5028L875.837 53.4599L876.912 52.417C875.851 51.324 874.774 50.247 873.681 49.1864L872.638 50.2611ZM878.939 56.7536L877.833 57.7638C878.84 58.8657 879.83 59.9829 880.804 61.115L881.939 60.1385L883.075 59.162C882.082 58.0071 881.071 56.8675 880.044 55.7434L878.939 56.7536ZM884.838 63.6123L883.674 64.5543C884.612 65.7147 885.534 66.8895 886.438 68.0783L887.63 67.1718L888.822 66.2653C887.9 65.0525 886.96 63.8541 886.002 62.6704L884.838 63.6123ZM890.314 70.813L889.095 71.6833C889.962 72.898 890.812 74.1263 891.643 75.3678L892.888 74.5347L894.132 73.7016C893.284 72.435 892.417 71.182 891.533 69.9428L890.314 70.813ZM895.347 78.3309L894.078 79.1261C894.87 80.3902 895.644 81.6671 896.398 82.9564L897.691 82.1999L898.983 81.4434C898.213 80.128 897.424 78.8253 896.616 77.5357L895.347 78.3309ZM899.918 86.14L898.603 86.857C899.317 88.1658 900.011 89.4865 900.687 90.8188L902.022 90.1419L903.358 89.465C902.669 88.1057 901.961 86.7582 901.232 85.4229L899.918 86.14ZM904.006 94.2085L902.65 94.8446C903.284 96.1947 903.898 97.5559 904.491 98.9279L905.865 98.3333L907.24 97.7387C906.634 96.3389 906.008 94.95 905.362 93.5725L904.006 94.2085ZM907.598 102.51L906.206 103.063C906.756 104.449 907.286 105.846 907.796 107.253L909.204 106.743L910.612 106.233C910.092 104.798 909.551 103.373 908.99 101.958L907.598 102.51ZM910.678 111.017L909.256 111.484C909.72 112.9 910.164 114.325 910.587 115.759L912.023 115.336L913.46 114.913C913.028 113.449 912.575 111.995 912.101 110.55L910.678 111.017ZM913.236 119.697L911.788 120.077C912.165 121.517 912.521 122.965 912.855 124.422L914.315 124.086L915.774 123.751C915.433 122.265 915.07 120.787 914.685 119.318L913.236 119.697ZM915.261 128.514L913.792 128.804C914.081 130.265 914.348 131.733 914.594 133.208L916.071 132.962L917.548 132.716C917.297 131.211 917.025 129.713 916.73 128.223L915.261 128.514ZM916.746 137.434L915.262 137.635C915.462 139.112 915.641 140.597 915.797 142.088L917.287 141.931L918.776 141.775C918.616 140.254 918.434 138.74 918.23 137.233L916.746 137.434ZM917.69 146.43L916.197 146.541C916.308 148.028 916.397 149.52 916.464 151.018L917.96 150.951L919.456 150.884C919.388 149.356 919.297 147.834 919.184 146.318L917.69 146.43ZM918.094 155.469L916.597 155.491C916.608 156.239 916.614 156.989 916.614 157.74H918.111H919.609C919.609 156.974 919.603 156.21 919.592 155.446L918.094 155.469ZM918.111 157.74H916.614V159.959H918.111H919.609V157.74H918.111ZM918.111 164.399H916.614V168.838H918.111H919.609V164.399H918.111ZM918.111 173.277H916.614V177.716H918.111H919.609V173.277H918.111ZM918.111 182.155H916.614V186.594H918.111H919.609V182.155H918.111ZM918.111 191.033H916.614V195.472H918.111H919.609V191.033H918.111ZM918.111 199.911H916.614V204.35H918.111H919.609V199.911H918.111ZM918.111 208.79H916.614V213.229H918.111H919.609V208.79H918.111ZM918.111 217.668H916.614V219.887H918.111H919.609V217.668H918.111ZM918.111 219.887H916.614C916.614 220.653 916.619 221.418 916.631 222.181L918.128 222.158L919.625 222.136C919.614 221.388 919.609 220.638 919.609 219.887H918.111ZM918.262 226.676L916.766 226.743C916.834 228.271 916.925 229.793 917.038 231.309L918.532 231.197L920.025 231.086C919.914 229.6 919.825 228.107 919.758 226.609L918.262 226.676ZM918.936 235.696L917.446 235.852C917.606 237.373 917.788 238.887 917.992 240.394L919.476 240.193L920.96 239.992C920.76 238.515 920.581 237.031 920.425 235.54L918.936 235.696ZM920.151 244.665L918.674 244.911C918.925 246.416 919.198 247.914 919.492 249.404L920.962 249.113L922.431 248.823C922.142 247.363 921.874 245.894 921.629 244.419L920.151 244.665ZM921.908 253.541L920.448 253.876C920.789 255.362 921.153 256.84 921.537 258.309L922.986 257.93L924.435 257.55C924.058 256.111 923.702 254.662 923.367 253.206L921.908 253.541ZM924.199 262.291L922.763 262.715C923.194 264.178 923.647 265.632 924.121 267.077L925.544 266.61L926.967 266.144C926.502 264.728 926.058 263.302 925.636 261.868L924.199 262.291ZM927.019 270.884L925.611 271.394C926.13 272.83 926.671 274.255 927.233 275.669L928.625 275.117L930.017 274.564C929.466 273.178 928.936 271.781 928.427 270.374L927.019 270.884ZM930.357 279.294L928.982 279.889C929.588 281.288 930.214 282.677 930.86 284.055L932.216 283.419L933.572 282.783C932.938 281.433 932.325 280.071 931.731 278.699L930.357 279.294ZM934.2 287.485L932.864 288.162C933.553 289.522 934.262 290.869 934.99 292.204L936.305 291.487L937.619 290.77C936.906 289.461 936.211 288.141 935.536 286.808L934.2 287.485ZM938.532 295.427L937.239 296.184C938.009 297.499 938.798 298.802 939.606 300.092L940.875 299.296L942.144 298.501C941.352 297.237 940.579 295.96 939.824 294.671L938.532 295.427ZM943.335 303.093L942.09 303.926C942.938 305.192 943.805 306.445 944.69 307.684L945.908 306.814L947.127 305.944C946.26 304.729 945.41 303.501 944.579 302.259L943.335 303.093ZM948.592 310.455L947.4 311.362C948.323 312.575 949.263 313.773 950.22 314.957L951.385 314.015L952.549 313.073C951.61 311.913 950.688 310.738 949.784 309.549L948.592 310.455ZM954.283 317.489L953.148 318.465C954.141 319.62 955.151 320.76 956.178 321.884L957.284 320.874L958.389 319.864C957.382 318.762 956.392 317.644 955.418 316.512L954.283 317.489ZM960.385 324.167L959.311 325.21C960.371 326.303 961.448 327.38 962.541 328.441L963.584 327.366L964.627 326.292C963.556 325.252 962.5 324.196 961.46 323.124L960.385 324.167ZM966.878 330.468L965.868 331.573C966.992 332.6 968.132 333.611 969.286 334.604L970.263 333.469L971.239 332.333C970.107 331.36 968.99 330.369 967.888 329.362L966.878 330.468ZM973.737 336.367L972.795 337.531C973.978 338.489 975.177 339.429 976.39 340.351L977.296 339.159L978.203 337.967C977.014 337.063 975.839 336.142 974.679 335.203L973.737 336.367ZM980.937 341.843L980.067 343.062C981.306 343.947 982.559 344.813 983.826 345.661L984.659 344.417L985.492 343.172C984.251 342.341 983.022 341.492 981.808 340.624L980.937 341.843ZM988.455 346.876L987.66 348.145C988.95 348.953 990.252 349.743 991.568 350.513L992.324 349.22L993.081 347.928C991.791 347.173 990.515 346.399 989.25 345.607L988.455 346.876ZM996.264 351.447L995.547 352.762C996.883 353.49 998.23 354.199 999.589 354.888L1000.27 353.552L1000.94 352.216C999.611 351.541 998.29 350.846 996.981 350.132L996.264 351.447ZM1004.33 355.535L1003.7 356.891C1005.07 357.538 1006.46 358.164 1007.86 358.769L1008.46 357.395L1009.05 356.02C1007.68 355.427 1006.32 354.813 1004.97 354.18L1004.33 355.535ZM1012.63 359.127L1012.08 360.519C1013.5 361.08 1014.92 361.621 1016.36 362.141L1016.87 360.733L1017.38 359.325C1015.97 358.816 1014.57 358.286 1013.19 357.735L1012.63 359.127ZM1021.14 362.208L1020.67 363.631C1022.12 364.105 1023.57 364.558 1025.04 364.989L1025.46 363.552L1025.88 362.116C1024.45 361.693 1023.02 361.249 1021.61 360.785L1021.14 362.208ZM1029.82 364.766L1029.44 366.214C1030.91 366.599 1032.39 366.962 1033.88 367.304L1034.21 365.844L1034.55 364.385C1033.09 364.05 1031.64 363.694 1030.2 363.317L1029.82 364.766ZM1038.64 366.79L1038.35 368.259C1039.84 368.554 1041.34 368.827 1042.84 369.077L1043.09 367.6L1043.33 366.123C1041.86 365.877 1040.39 365.61 1038.93 365.321L1038.64 366.79ZM1047.56 368.275L1047.36 369.759C1048.86 369.964 1050.38 370.146 1051.9 370.305L1052.06 368.816L1052.21 367.327C1050.72 367.17 1049.24 366.992 1047.76 366.792L1047.56 368.275ZM1056.55 369.22L1056.44 370.713C1057.96 370.826 1059.48 370.917 1061.01 370.985L1061.08 369.489L1061.14 367.993C1059.64 367.927 1058.15 367.837 1056.67 367.726L1056.55 369.22ZM1065.59 369.624L1065.57 371.121C1066.33 371.132 1067.1 371.138 1067.86 371.138V369.641V368.143C1067.11 368.143 1066.36 368.137 1065.62 368.126L1065.59 369.624ZM1067.86 369.641V371.138H1068.71V369.641V368.143H1067.86V369.641ZM1070.39 369.641V371.138H1071.23V369.641V368.143H1070.39V369.641ZM1071.23 369.641V371.138C1072 371.138 1072.76 371.132 1073.53 371.121L1073.5 369.624L1073.48 368.126C1072.73 368.137 1071.98 368.143 1071.23 368.143V369.641ZM1078.02 369.489L1078.09 370.985C1079.62 370.917 1081.14 370.826 1082.66 370.713L1082.54 369.22L1082.43 367.726C1080.95 367.837 1079.45 367.927 1077.96 367.993L1078.02 369.489ZM1087.04 368.816L1087.2 370.305C1088.72 370.146 1090.23 369.964 1091.74 369.759L1091.54 368.275L1091.34 366.792C1089.86 366.992 1088.38 367.17 1086.89 367.327L1087.04 368.816ZM1096.01 367.6L1096.26 369.077C1097.76 368.827 1099.26 368.554 1100.75 368.259L1100.46 366.79L1100.17 365.321C1098.71 365.61 1097.24 365.877 1095.77 366.123L1096.01 367.6ZM1104.89 365.844L1105.22 367.304C1106.71 366.962 1108.19 366.599 1109.66 366.214L1109.28 364.766L1108.9 363.317C1107.46 363.694 1106.01 364.05 1104.55 364.385L1104.89 365.844ZM1113.64 363.552L1114.06 364.989C1115.52 364.558 1116.98 364.105 1118.42 363.631L1117.96 362.208L1117.49 360.785C1116.07 361.249 1114.65 361.693 1113.21 362.116L1113.64 363.552ZM1122.23 360.733L1122.74 362.141C1124.18 361.621 1125.6 361.081 1127.02 360.519L1126.46 359.127L1125.91 357.735C1124.52 358.286 1123.13 358.816 1121.72 359.325L1122.23 360.733ZM1130.64 357.395L1131.23 358.769C1132.63 358.164 1134.02 357.538 1135.4 356.891L1134.77 355.536L1134.13 354.18C1132.78 354.813 1131.42 355.427 1130.05 356.02L1130.64 357.395ZM1138.83 353.552L1139.51 354.888C1140.87 354.199 1142.22 353.49 1143.55 352.762L1142.83 351.447L1142.12 350.132C1140.81 350.846 1139.49 351.541 1138.15 352.216L1138.83 353.552ZM1146.77 349.22L1147.53 350.513C1148.85 349.743 1150.15 348.953 1151.44 348.145L1150.64 346.876L1149.85 345.607C1148.58 346.399 1147.31 347.173 1146.02 347.928L1146.77 349.22ZM1154.44 344.417L1155.27 345.661C1156.54 344.813 1157.79 343.947 1159.03 343.062L1158.16 341.843L1157.29 340.625C1156.08 341.492 1154.85 342.341 1153.61 343.173L1154.44 344.417ZM1161.8 339.16L1162.71 340.352C1163.92 339.429 1165.12 338.489 1166.3 337.531L1165.36 336.367L1164.42 335.203C1163.26 336.142 1162.08 337.063 1160.9 337.968L1161.8 339.16ZM1168.84 333.469L1169.81 334.604C1170.97 333.611 1172.11 332.601 1173.23 331.573L1172.22 330.468L1171.21 329.362C1170.11 330.369 1168.99 331.36 1167.86 332.333L1168.84 333.469ZM1175.51 327.366L1176.56 328.441C1177.65 327.38 1178.73 326.303 1179.79 325.21L1178.71 324.167L1177.64 323.125C1176.6 324.196 1175.54 325.252 1174.47 326.292L1175.51 327.366ZM1181.81 320.874L1182.92 321.884C1183.95 320.76 1184.96 319.62 1185.95 318.465L1184.82 317.489L1183.68 316.512C1182.71 317.644 1181.72 318.762 1180.71 319.864L1181.81 320.874ZM1187.71 314.015L1188.88 314.957C1189.84 313.773 1190.78 312.575 1191.7 311.362L1190.51 310.456L1189.31 309.549C1188.41 310.738 1187.49 311.913 1186.55 313.073L1187.71 314.015ZM1193.19 306.814L1194.41 307.685C1195.29 306.445 1196.16 305.192 1197.01 303.926L1195.76 303.093L1194.52 302.26C1193.69 303.501 1192.84 304.729 1191.97 305.944L1193.19 306.814ZM1198.22 299.296L1199.49 300.092C1200.3 298.802 1201.09 297.499 1201.86 296.184L1200.57 295.427L1199.27 294.671C1198.52 295.96 1197.75 297.237 1196.95 298.501L1198.22 299.296ZM1202.79 291.487L1204.11 292.204C1204.84 290.869 1205.55 289.522 1206.23 288.162L1204.9 287.485L1203.56 286.809C1202.89 288.141 1202.19 289.462 1201.48 290.77L1202.79 291.487ZM1206.88 283.419L1208.24 284.055C1208.88 282.677 1209.51 281.288 1210.12 279.889L1208.74 279.294L1207.37 278.699C1206.77 280.071 1206.16 281.433 1205.53 282.783L1206.88 283.419ZM1210.47 275.117L1211.87 275.669C1212.43 274.255 1212.97 272.83 1213.49 271.394L1212.08 270.884L1210.67 270.375C1210.16 271.781 1209.63 273.178 1209.08 274.564L1210.47 275.117ZM1213.55 266.611L1214.98 267.077C1215.45 265.633 1215.9 264.178 1216.34 262.715L1214.9 262.291L1213.46 261.868C1213.04 263.302 1212.6 264.728 1212.13 266.144L1213.55 266.611ZM1216.11 257.93L1217.56 258.309C1217.95 256.84 1218.31 255.362 1218.65 253.876L1217.19 253.541L1215.73 253.206C1215.4 254.662 1215.04 256.111 1214.66 257.551L1216.11 257.93ZM1218.14 249.114L1219.61 249.404C1219.9 247.914 1220.17 246.416 1220.42 244.911L1218.95 244.665L1217.47 244.419C1217.22 245.895 1216.96 247.363 1216.67 248.823L1218.14 249.114ZM1219.62 240.193L1221.11 240.394C1221.31 238.887 1221.49 237.373 1221.65 235.852L1220.16 235.696L1218.67 235.54C1218.52 237.031 1218.34 238.515 1218.14 239.992L1219.62 240.193ZM1220.57 231.197L1222.06 231.309C1222.17 229.793 1222.26 228.271 1222.33 226.743L1220.84 226.676L1219.34 226.609C1219.27 228.108 1219.18 229.6 1219.07 231.086L1220.57 231.197ZM1220.97 222.159L1222.47 222.181C1222.48 221.418 1222.48 220.653 1222.48 219.887H1220.99H1219.49C1219.49 220.638 1219.48 221.388 1219.47 222.136L1220.97 222.159ZM1220.99 219.887H1222.48V217.68H1220.99H1219.49V219.887H1220.99ZM1220.99 213.266H1222.48V208.851H1220.99H1219.49V213.266H1220.99ZM1220.99 204.436H1222.48V200.022H1220.99H1219.49V204.436H1220.99ZM1220.99 195.607H1222.48V191.193H1220.99H1219.49V195.607H1220.99ZM1220.99 186.778H1222.48V182.363H1220.99H1219.49V186.778H1220.99ZM1220.99 177.949H1222.48V173.534H1220.99H1219.49V177.949H1220.99ZM1220.99 169.12H1222.48V164.705H1220.99H1219.49V169.12H1220.99ZM1220.99 160.29H1222.48V155.876H1220.99H1219.49V160.29H1220.99ZM1220.99 151.461H1222.48V147.047H1220.99H1219.49V151.461H1220.99ZM1220.99 142.632H1222.48V138.217H1220.99H1219.49V142.632H1220.99ZM1220.99 133.803H1222.48V129.388H1220.99H1219.49V133.803H1220.99ZM1220.99 124.974H1222.48V120.559H1220.99H1219.49V124.974H1220.99ZM1220.99 116.144H1222.48V111.73H1220.99H1219.49V116.144H1220.99ZM1220.99 107.315H1222.48V102.901H1220.99H1219.49V107.315H1220.99ZM1220.99 98.486H1222.48V94.0715H1220.99H1219.49V98.486H1220.99ZM1220.99 89.6569H1222.48V85.2423H1220.99H1219.49V89.6569H1220.99ZM1220.99 80.8277H1222.48V76.4131H1220.99H1219.49V80.8277H1220.99ZM1220.99 71.9985H1222.48V67.5839H1220.99H1219.49V71.9985H1220.99ZM1220.99 63.1693H1222.48V58.7547H1220.99H1219.49V63.1693H1220.99ZM1220.99 54.3401H1222.48V49.9255H1220.99H1219.49V54.3401H1220.99ZM1220.99 45.5109H1222.48V41.0963H1220.99H1219.49V45.5109H1220.99ZM1220.99 36.6817H1222.48V32.2671H1220.99H1219.49V36.6817H1220.99ZM1220.99 27.8525H1222.48V23.4379H1220.99H1219.49V27.8525H1220.99ZM1220.99 19.0233H1222.48V14.6087H1220.99H1219.49V19.0233H1220.99ZM1220.99 10.1941H1222.48V7.98682H1220.99H1219.49V10.1941H1220.99Z" fill="#3A9BC6" fill-opacity="0.4"/>
</svg>