<svg width="20" height="24" viewBox="0 0 20 24" fill="none" xmlns="http://www.w3.org/2000/svg">
<path d="M9.52806 0C4.28763 0 0 4.28763 0 9.52806C0 15.9595 8.33705 23.2246 8.69436 23.5819C8.93256 23.701 9.28986 23.8202 9.52806 23.8202C9.76626 23.8202 10.1236 23.701 10.3618 23.5819C10.7191 23.2246 19.0561 15.9595 19.0561 9.52806C19.0561 4.28763 14.7685 0 9.52806 0ZM9.52806 21.0808C7.02694 18.6988 2.38201 13.5775 2.38201 9.52806C2.38201 5.59774 5.59774 2.38201 9.52806 2.38201C13.4584 2.38201 16.6741 5.59774 16.6741 9.52806C16.6741 13.4584 12.0292 18.6988 9.52806 21.0808ZM9.52806 4.76403C6.90784 4.76403 4.76403 6.90784 4.76403 9.52806C4.76403 12.1483 6.90784 14.2921 9.52806 14.2921C12.1483 14.2921 14.2921 12.1483 14.2921 9.52806C14.2921 6.90784 12.1483 4.76403 9.52806 4.76403ZM9.52806 11.9101C8.21795 11.9101 7.14604 10.8382 7.14604 9.52806C7.14604 8.21795 8.21795 7.14604 9.52806 7.14604C10.8382 7.14604 11.9101 8.21795 11.9101 9.52806C11.9101 10.8382 10.8382 11.9101 9.52806 11.9101Z" fill="#00B4D8"/>
</svg>