<svg width="24" height="20" viewBox="0 0 24 20" fill="none" xmlns="http://www.w3.org/2000/svg">
<path d="M3.87077 8.3075e-09H19.9494C20.9381 -6.47274e-05 21.8893 0.378209 22.608 1.05722C23.3266 1.73624 23.7582 2.66451 23.8142 3.65163L23.8202 3.87077V15.1853C23.8202 16.174 23.4419 17.1253 22.7629 17.844C22.0839 18.5626 21.1556 18.9942 20.1685 19.0502L19.9494 19.0561H3.87077C2.88207 19.0562 1.93083 18.6779 1.21217 17.9989C0.493514 17.3199 0.0619308 16.3916 0.00595518 15.4045L8.3075e-09 15.1853V3.87077C-6.47274e-05 2.88207 0.378209 1.93083 1.05722 1.21217C1.73624 0.493514 2.66451 0.0619308 3.65163 0.00595518L3.87077 8.3075e-09ZM22.0336 6.39928L12.3269 11.5087C12.2173 11.5666 12.0969 11.6011 11.9732 11.6099C11.8496 11.6187 11.7255 11.6017 11.6087 11.5599L11.4944 11.5099L1.78651 6.40047V15.1853C1.78653 15.7084 1.98323 16.2124 2.33757 16.5972C2.6919 16.9819 3.17796 17.2194 3.69927 17.2625L3.87077 17.2696H19.9494C20.4726 17.2696 20.9768 17.0727 21.3616 16.7181C21.7464 16.3635 21.9837 15.8772 22.0265 15.3557L22.0336 15.1853V6.39928ZM19.9494 1.78651H3.87077C3.3477 1.78653 2.84375 1.98323 2.45896 2.33757C2.07418 2.6919 1.8367 3.17796 1.79366 3.69927L1.78651 3.87077V4.38172L11.9101 9.70909L22.0336 4.38053V3.87077C22.0336 3.34751 21.8367 2.8434 21.4821 2.45859C21.1276 2.07378 20.6412 1.83642 20.1197 1.79366L19.9494 1.78651Z" fill="#00B4D8"/>
</svg>