<svg width="25" height="25" viewBox="0 0 25 25" fill="none" xmlns="http://www.w3.org/2000/svg">
<path d="M2.5639 2.38201H7.91152L9.63491 6.69108L6.86582 8.53714C6.70275 8.64594 6.56906 8.7933 6.4766 8.96616C6.38415 9.13902 6.33579 9.33203 6.33582 9.52806C6.33939 9.64001 6.33582 9.52925 6.33582 9.52925V9.55426C6.33652 9.60752 6.33891 9.66075 6.34297 9.71386C6.35011 9.81152 6.36202 9.94372 6.38465 10.1069C6.4311 10.4285 6.52043 10.8715 6.69431 11.3932C7.04447 12.4413 7.73049 13.7978 9.0668 15.1341C10.4031 16.4704 11.7597 17.1565 12.8066 17.5066C13.3294 17.6805 13.7713 17.7686 14.0952 17.8163C14.2781 17.8418 14.4621 17.8577 14.6467 17.8639L14.6622 17.8651H14.6717C14.6717 17.8651 14.8051 17.858 14.6729 17.8651C14.894 17.865 15.1107 17.8033 15.2988 17.687C15.4868 17.5707 15.6388 17.4043 15.7376 17.2065L16.5356 15.6105L21.8189 16.4919V21.637C19.3047 22.0003 12.5136 22.3588 7.17786 17.0231C1.84215 11.6874 2.19945 4.89504 2.5639 2.38201ZM8.80478 10.1069L10.9569 8.67292C11.4116 8.36965 11.7481 7.91927 11.9101 7.39731C12.0721 6.87534 12.0497 6.31355 11.8466 5.80616L10.1232 1.4971C9.94637 1.05512 9.64115 0.676271 9.24693 0.409423C8.8527 0.142575 8.38757 -3.19112e-05 7.91152 5.35622e-09H2.50197C1.41934 5.35622e-09 0.401029 0.751526 0.223569 1.92586C-0.181373 4.5961 -0.730428 12.483 5.49378 18.7072C11.718 24.9314 19.6048 24.3811 22.2751 23.9774C23.4494 23.7987 24.2009 22.7816 24.2009 21.699V16.4919C24.201 15.928 24.001 15.3824 23.6366 14.9521C23.2722 14.5218 22.7669 14.2348 22.2108 14.142L16.9274 13.2619C16.425 13.178 15.9088 13.2574 15.4548 13.4885C15.0008 13.7196 14.6328 14.0901 14.4049 14.5458L13.9928 15.3711C13.8471 15.3353 13.7029 15.2935 13.5605 15.2461C12.822 15.0007 11.7966 14.4958 10.7509 13.45C9.70518 12.4043 9.20019 11.3789 8.95485 10.6393C8.89626 10.4644 8.84657 10.2868 8.80597 10.1069H8.80478Z" fill="#00B4D8"/>
</svg>